<?xml version="1.0" encoding="UTF-8" standalone="no"?>
<!DOCTYPE svg PUBLIC "-//W3C//DTD SVG 1.1//EN"
 "http://www.w3.org/Graphics/SVG/1.1/DTD/svg11.dtd">
<!-- Generated by graphviz version 12.1.1 (20240910.0053)
 -->
<!-- Pages: 1 -->
<svg width="1767pt" height="770pt"
 viewBox="0.00 0.00 1766.75 770.38" xmlns="http://www.w3.org/2000/svg" xmlns:xlink="http://www.w3.org/1999/xlink">
<g id="graph0" class="graph" transform="scale(1 1) rotate(0) translate(4 766.38)">
<polygon fill="#ffffff" stroke="none" points="-4,4 -4,-766.38 1762.75,-766.38 1762.75,4 -4,4"/>
<!-- X1 -->
<g id="node1" class="node">
<title>X1</title>
<polygon fill="#ffffff" stroke="black" points="182.25,-340.25 13.5,-340.25 13.5,-177 182.25,-177 182.25,-340.25"/>
<polygon fill="none" stroke="black" points="13.5,-316.5 13.5,-340.25 182.25,-340.25 182.25,-316.5 13.5,-316.5"/>
<text text-anchor="start" x="89.62" y="-322.95" font-family="arial" font-size="14.00">X1</text>
<polygon fill="none" stroke="black" points="13.5,-292.75 13.5,-316.5 106.25,-316.5 106.25,-292.75 13.5,-292.75"/>
<text text-anchor="start" x="17.5" y="-299.2" font-family="arial" font-size="14.00">Molex KK 254</text>
<polygon fill="none" stroke="black" points="106.25,-292.75 106.25,-316.5 144.25,-316.5 144.25,-292.75 106.25,-292.75"/>
<text text-anchor="start" x="110.25" y="-299.2" font-family="arial" font-size="14.00">male</text>
<polygon fill="none" stroke="black" points="144.25,-292.75 144.25,-316.5 182.25,-316.5 182.25,-292.75 144.25,-292.75"/>
<text text-anchor="start" x="148.25" y="-299.2" font-family="arial" font-size="14.00">4&#45;pin</text>
<polygon fill="none" stroke="black" points="13.5,-269.75 13.5,-292.75 109.38,-292.75 109.38,-269.75 13.5,-269.75"/>
<text text-anchor="start" x="46.06" y="-275.45" font-family="arial" font-size="14.00">GND</text>
<polygon fill="none" stroke="black" points="109.38,-269.75 109.38,-292.75 182.25,-292.75 182.25,-269.75 109.38,-269.75"/>
<text text-anchor="start" x="142.06" y="-275.45" font-family="arial" font-size="14.00">1</text>
<polygon fill="none" stroke="black" points="13.5,-246.75 13.5,-269.75 109.38,-269.75 109.38,-246.75 13.5,-246.75"/>
<text text-anchor="start" x="47.19" y="-252.45" font-family="arial" font-size="14.00">VCC</text>
<polygon fill="none" stroke="black" points="109.38,-246.75 109.38,-269.75 182.25,-269.75 182.25,-246.75 109.38,-246.75"/>
<text text-anchor="start" x="142.06" y="-252.45" font-family="arial" font-size="14.00">2</text>
<polygon fill="none" stroke="black" points="13.5,-223.75 13.5,-246.75 109.38,-246.75 109.38,-223.75 13.5,-223.75"/>
<text text-anchor="start" x="48.31" y="-229.45" font-family="arial" font-size="14.00">SCL</text>
<polygon fill="none" stroke="black" points="109.38,-223.75 109.38,-246.75 182.25,-246.75 182.25,-223.75 109.38,-223.75"/>
<text text-anchor="start" x="142.06" y="-229.45" font-family="arial" font-size="14.00">3</text>
<polygon fill="none" stroke="black" points="13.5,-200.75 13.5,-223.75 109.38,-223.75 109.38,-200.75 13.5,-200.75"/>
<text text-anchor="start" x="47.56" y="-206.45" font-family="arial" font-size="14.00">SDA</text>
<polygon fill="none" stroke="black" points="109.38,-200.75 109.38,-223.75 182.25,-223.75 182.25,-200.75 109.38,-200.75"/>
<text text-anchor="start" x="142.06" y="-206.45" font-family="arial" font-size="14.00">4</text>
<polygon fill="none" stroke="black" points="13.5,-177 13.5,-200.75 182.25,-200.75 182.25,-177 13.5,-177"/>
<text text-anchor="start" x="45.75" y="-183.45" font-family="arial" font-size="14.00">to microcontroller</text>
</g>
<!-- W1 -->
<g id="node6" class="node">
<title>W1</title>
<polygon fill="#ffffff" stroke="black" points="639.75,-381.25 413.75,-381.25 413.75,0 639.75,0 639.75,-381.25"/>
<polygon fill="none" stroke="black" points="413.75,-357.5 413.75,-381.25 639.75,-381.25 639.75,-357.5 413.75,-357.5"/>
<text text-anchor="start" x="516.25" y="-363.95" font-family="arial" font-size="14.00">W1</text>
<polygon fill="none" stroke="black" points="413.75,-333.75 413.75,-357.5 454.12,-357.5 454.12,-333.75 413.75,-333.75"/>
<text text-anchor="start" x="426.81" y="-340.2" font-family="arial" font-size="14.00">8x</text>
<polygon fill="none" stroke="black" points="454.12,-333.75 454.12,-357.5 532,-357.5 532,-333.75 454.12,-333.75"/>
<text text-anchor="start" x="467.19" y="-340.2" font-family="arial" font-size="14.00">24 AWG</text>
<polygon fill="none" stroke="black" points="532,-333.75 532,-357.5 579.12,-357.5 579.12,-333.75 532,-333.75"/>
<text text-anchor="start" x="545.06" y="-340.2" font-family="arial" font-size="14.00">+ S</text>
<polygon fill="none" stroke="black" points="579.12,-333.75 579.12,-357.5 639.75,-357.5 639.75,-333.75 579.12,-333.75"/>
<text text-anchor="start" x="592.19" y="-340.2" font-family="arial" font-size="14.00">0.3 m</text>
<text text-anchor="start" x="444.88" y="-318.45" font-family="arial" font-size="14.00"> </text>
<text text-anchor="start" x="415.62" y="-299.45" font-family="arial" font-size="14.00">X1:1:GND</text>
<text text-anchor="start" x="481.38" y="-299.45" font-family="arial" font-size="14.00"> &#160;&#160;&#160;&#160;1:WHOG &#160;&#160;&#160;</text>
<text text-anchor="start" x="575.62" y="-299.45" font-family="arial" font-size="14.00">X2:1:GND</text>
<polygon fill="#000000" stroke="none" points="413.75,-293.75 413.75,-295.75 639.75,-295.75 639.75,-293.75 413.75,-293.75"/>
<polygon fill="#ffffff" stroke="none" points="413.75,-291.75 413.75,-293.75 639.75,-293.75 639.75,-291.75 413.75,-291.75"/>
<polygon fill="#ff8000" stroke="none" points="413.75,-289.75 413.75,-291.75 639.75,-291.75 639.75,-289.75 413.75,-289.75"/>
<polygon fill="#ffffff" stroke="none" points="413.75,-287.75 413.75,-289.75 639.75,-289.75 639.75,-287.75 413.75,-287.75"/>
<polygon fill="#000000" stroke="none" points="413.75,-285.75 413.75,-287.75 639.75,-287.75 639.75,-285.75 413.75,-285.75"/>
<text text-anchor="start" x="416.75" y="-270.45" font-family="arial" font-size="14.00">X1:2:VCC</text>
<text text-anchor="start" x="493" y="-270.45" font-family="arial" font-size="14.00"> &#160;&#160;&#160;&#160;2:OG &#160;&#160;&#160;</text>
<text text-anchor="start" x="576.75" y="-270.45" font-family="arial" font-size="14.00">X2:2:VCC</text>
<polygon fill="#000000" stroke="none" points="413.75,-264.75 413.75,-266.75 639.75,-266.75 639.75,-264.75 413.75,-264.75"/>
<polygon fill="#ff8000" stroke="none" points="413.75,-262.75 413.75,-264.75 639.75,-264.75 639.75,-262.75 413.75,-262.75"/>
<polygon fill="#ff8000" stroke="none" points="413.75,-260.75 413.75,-262.75 639.75,-262.75 639.75,-260.75 413.75,-260.75"/>
<polygon fill="#ff8000" stroke="none" points="413.75,-258.75 413.75,-260.75 639.75,-260.75 639.75,-258.75 413.75,-258.75"/>
<polygon fill="#000000" stroke="none" points="413.75,-256.75 413.75,-258.75 639.75,-258.75 639.75,-256.75 413.75,-256.75"/>
<text text-anchor="start" x="417.88" y="-241.45" font-family="arial" font-size="14.00">X1:3:SCL</text>
<text text-anchor="start" x="482.12" y="-241.45" font-family="arial" font-size="14.00"> &#160;&#160;&#160;&#160;3:WHGN &#160;&#160;&#160;</text>
<text text-anchor="start" x="577.88" y="-241.45" font-family="arial" font-size="14.00">X2:3:SCL</text>
<polygon fill="#000000" stroke="none" points="413.75,-235.75 413.75,-237.75 639.75,-237.75 639.75,-235.75 413.75,-235.75"/>
<polygon fill="#ffffff" stroke="none" points="413.75,-233.75 413.75,-235.75 639.75,-235.75 639.75,-233.75 413.75,-233.75"/>
<polygon fill="#00ff00" stroke="none" points="413.75,-231.75 413.75,-233.75 639.75,-233.75 639.75,-231.75 413.75,-231.75"/>
<polygon fill="#ffffff" stroke="none" points="413.75,-229.75 413.75,-231.75 639.75,-231.75 639.75,-229.75 413.75,-229.75"/>
<polygon fill="#000000" stroke="none" points="413.75,-227.75 413.75,-229.75 639.75,-229.75 639.75,-227.75 413.75,-227.75"/>
<text text-anchor="start" x="417.12" y="-212.45" font-family="arial" font-size="14.00">X1:4:SDA</text>
<text text-anchor="start" x="494.88" y="-212.45" font-family="arial" font-size="14.00"> &#160;&#160;&#160;&#160;4:BU &#160;&#160;&#160;</text>
<text text-anchor="start" x="577.12" y="-212.45" font-family="arial" font-size="14.00">X2:4:SDA</text>
<polygon fill="#000000" stroke="none" points="413.75,-206.75 413.75,-208.75 639.75,-208.75 639.75,-206.75 413.75,-206.75"/>
<polygon fill="#0066ff" stroke="none" points="413.75,-204.75 413.75,-206.75 639.75,-206.75 639.75,-204.75 413.75,-204.75"/>
<polygon fill="#0066ff" stroke="none" points="413.75,-202.75 413.75,-204.75 639.75,-204.75 639.75,-202.75 413.75,-202.75"/>
<polygon fill="#0066ff" stroke="none" points="413.75,-200.75 413.75,-202.75 639.75,-202.75 639.75,-200.75 413.75,-200.75"/>
<polygon fill="#000000" stroke="none" points="413.75,-198.75 413.75,-200.75 639.75,-200.75 639.75,-198.75 413.75,-198.75"/>
<text text-anchor="start" x="483.25" y="-183.45" font-family="arial" font-size="14.00"> &#160;&#160;&#160;&#160;5:WHBU &#160;&#160;&#160;</text>
<polygon fill="#000000" stroke="none" points="413.75,-177.75 413.75,-179.75 639.75,-179.75 639.75,-177.75 413.75,-177.75"/>
<polygon fill="#ffffff" stroke="none" points="413.75,-175.75 413.75,-177.75 639.75,-177.75 639.75,-175.75 413.75,-175.75"/>
<polygon fill="#0066ff" stroke="none" points="413.75,-173.75 413.75,-175.75 639.75,-175.75 639.75,-173.75 413.75,-173.75"/>
<polygon fill="#ffffff" stroke="none" points="413.75,-171.75 413.75,-173.75 639.75,-173.75 639.75,-171.75 413.75,-171.75"/>
<polygon fill="#000000" stroke="none" points="413.75,-169.75 413.75,-171.75 639.75,-171.75 639.75,-169.75 413.75,-169.75"/>
<text text-anchor="start" x="493.75" y="-154.45" font-family="arial" font-size="14.00"> &#160;&#160;&#160;&#160;6:GN &#160;&#160;&#160;</text>
<polygon fill="#000000" stroke="none" points="413.75,-148.75 413.75,-150.75 639.75,-150.75 639.75,-148.75 413.75,-148.75"/>
<polygon fill="#00ff00" stroke="none" points="413.75,-146.75 413.75,-148.75 639.75,-148.75 639.75,-146.75 413.75,-146.75"/>
<polygon fill="#00ff00" stroke="none" points="413.75,-144.75 413.75,-146.75 639.75,-146.75 639.75,-144.75 413.75,-144.75"/>
<polygon fill="#00ff00" stroke="none" points="413.75,-142.75 413.75,-144.75 639.75,-144.75 639.75,-142.75 413.75,-142.75"/>
<polygon fill="#000000" stroke="none" points="413.75,-140.75 413.75,-142.75 639.75,-142.75 639.75,-140.75 413.75,-140.75"/>
<text text-anchor="start" x="483.25" y="-125.45" font-family="arial" font-size="14.00"> &#160;&#160;&#160;&#160;7:WHBN &#160;&#160;&#160;</text>
<polygon fill="#000000" stroke="none" points="413.75,-119.75 413.75,-121.75 639.75,-121.75 639.75,-119.75 413.75,-119.75"/>
<polygon fill="#ffffff" stroke="none" points="413.75,-117.75 413.75,-119.75 639.75,-119.75 639.75,-117.75 413.75,-117.75"/>
<polygon fill="#895956" stroke="none" points="413.75,-115.75 413.75,-117.75 639.75,-117.75 639.75,-115.75 413.75,-115.75"/>
<polygon fill="#ffffff" stroke="none" points="413.75,-113.75 413.75,-115.75 639.75,-115.75 639.75,-113.75 413.75,-113.75"/>
<polygon fill="#000000" stroke="none" points="413.75,-111.75 413.75,-113.75 639.75,-113.75 639.75,-111.75 413.75,-111.75"/>
<text text-anchor="start" x="494.88" y="-96.45" font-family="arial" font-size="14.00"> &#160;&#160;&#160;&#160;8:BN &#160;&#160;&#160;</text>
<polygon fill="#000000" stroke="none" points="413.75,-90.75 413.75,-92.75 639.75,-92.75 639.75,-90.75 413.75,-90.75"/>
<polygon fill="#895956" stroke="none" points="413.75,-88.75 413.75,-90.75 639.75,-90.75 639.75,-88.75 413.75,-88.75"/>
<polygon fill="#895956" stroke="none" points="413.75,-86.75 413.75,-88.75 639.75,-88.75 639.75,-86.75 413.75,-86.75"/>
<polygon fill="#895956" stroke="none" points="413.75,-84.75 413.75,-86.75 639.75,-86.75 639.75,-84.75 413.75,-84.75"/>
<polygon fill="#000000" stroke="none" points="413.75,-82.75 413.75,-84.75 639.75,-84.75 639.75,-82.75 413.75,-82.75"/>
<text text-anchor="start" x="444.88" y="-67.45" font-family="arial" font-size="14.00"> </text>
<text text-anchor="start" x="508" y="-48.45" font-family="arial" font-size="14.00">Shield</text>
<polygon fill="#000000" stroke="none" points="413.75,-42.75 413.75,-44.75 639.75,-44.75 639.75,-42.75 413.75,-42.75"/>
<text text-anchor="start" x="444.88" y="-27.45" font-family="arial" font-size="14.00"> </text>
<polygon fill="none" stroke="black" points="413.75,0 413.75,-23.75 639.75,-23.75 639.75,0 413.75,0"/>
<text text-anchor="start" x="454" y="-6.45" font-family="arial" font-size="14.00">This cable is a bit longer</text>
</g>
<!-- X1&#45;&#45;W1 -->
<g id="edge1" class="edge">
<title>X1:e&#45;&#45;W1:w</title>
<path fill="none" stroke="#000000" stroke-width="2" d="M183.25,-277.25C286.74,-277.5 312.07,-287 412.75,-286.75"/>
<path fill="none" stroke="#ffffff" stroke-width="2" d="M183.25,-279.25C286.04,-279.38 311.37,-288.88 412.75,-288.75"/>
<path fill="none" stroke="#ff8000" stroke-width="2" d="M183.25,-281.25C285.34,-281.25 310.66,-290.75 412.75,-290.75"/>
<path fill="none" stroke="#ffffff" stroke-width="2" d="M183.25,-283.25C284.63,-283.12 309.96,-292.62 412.75,-292.75"/>
<path fill="none" stroke="#000000" stroke-width="2" d="M183.25,-285.25C283.93,-285 309.26,-294.5 412.75,-294.75"/>
</g>
<!-- X1&#45;&#45;W1 -->
<g id="edge3" class="edge">
<title>X1:e&#45;&#45;W1:w</title>
<path fill="none" stroke="#000000" stroke-width="2" d="M183.25,-254.25C285.81,-254.29 311.28,-257.79 412.75,-257.75"/>
<path fill="none" stroke="#ff8000" stroke-width="2" d="M183.25,-256.25C285.53,-256.27 311.01,-259.77 412.75,-259.75"/>
<path fill="none" stroke="#ff8000" stroke-width="2" d="M183.25,-258.25C285.26,-258.25 310.74,-261.75 412.75,-261.75"/>
<path fill="none" stroke="#ff8000" stroke-width="2" d="M183.25,-260.25C284.99,-260.23 310.47,-263.73 412.75,-263.75"/>
<path fill="none" stroke="#000000" stroke-width="2" d="M183.25,-262.25C284.72,-262.21 310.19,-265.71 412.75,-265.75"/>
</g>
<!-- X1&#45;&#45;W1 -->
<g id="edge5" class="edge">
<title>X1:e&#45;&#45;W1:w</title>
<path fill="none" stroke="#000000" stroke-width="2" d="M183.25,-231.25C284.87,-231.27 310.35,-228.77 412.75,-228.75"/>
<path fill="none" stroke="#ffffff" stroke-width="2" d="M183.25,-233.25C285.06,-233.26 310.55,-230.76 412.75,-230.75"/>
<path fill="none" stroke="#00ff00" stroke-width="2" d="M183.25,-235.25C285.26,-235.25 310.74,-232.75 412.75,-232.75"/>
<path fill="none" stroke="#ffffff" stroke-width="2" d="M183.25,-237.25C285.45,-237.24 310.94,-234.74 412.75,-234.75"/>
<path fill="none" stroke="#000000" stroke-width="2" d="M183.25,-239.25C285.65,-239.23 311.13,-236.73 412.75,-236.75"/>
</g>
<!-- X1&#45;&#45;W1 -->
<g id="edge7" class="edge">
<title>X1:e&#45;&#45;W1:w</title>
<path fill="none" stroke="#000000" stroke-width="2" d="M183.25,-208.25C284.05,-208.46 309.41,-199.96 412.75,-199.75"/>
<path fill="none" stroke="#0066ff" stroke-width="2" d="M183.25,-210.25C284.68,-210.35 310.04,-201.85 412.75,-201.75"/>
<path fill="none" stroke="#0066ff" stroke-width="2" d="M183.25,-212.25C285.32,-212.25 310.68,-203.75 412.75,-203.75"/>
<path fill="none" stroke="#0066ff" stroke-width="2" d="M183.25,-214.25C285.96,-214.15 311.32,-205.65 412.75,-205.75"/>
<path fill="none" stroke="#000000" stroke-width="2" d="M183.25,-216.25C286.59,-216.04 311.95,-207.54 412.75,-207.75"/>
</g>
<!-- X2 -->
<g id="node2" class="node">
<title>X2</title>
<polygon fill="#ffffff" stroke="black" points="1051.25,-340.25 871.25,-340.25 871.25,-177 1051.25,-177 1051.25,-340.25"/>
<polygon fill="none" stroke="black" points="871.25,-316.5 871.25,-340.25 1051.25,-340.25 1051.25,-316.5 871.25,-316.5"/>
<text text-anchor="start" x="953" y="-322.95" font-family="arial" font-size="14.00">X2</text>
<polygon fill="none" stroke="black" points="871.25,-292.75 871.25,-316.5 964,-316.5 964,-292.75 871.25,-292.75"/>
<text text-anchor="start" x="875.25" y="-299.2" font-family="arial" font-size="14.00">Molex KK 254</text>
<polygon fill="none" stroke="black" points="964,-292.75 964,-316.5 1013.25,-316.5 1013.25,-292.75 964,-292.75"/>
<text text-anchor="start" x="968" y="-299.2" font-family="arial" font-size="14.00">female</text>
<polygon fill="none" stroke="black" points="1013.25,-292.75 1013.25,-316.5 1051.25,-316.5 1051.25,-292.75 1013.25,-292.75"/>
<text text-anchor="start" x="1017.25" y="-299.2" font-family="arial" font-size="14.00">4&#45;pin</text>
<polygon fill="none" stroke="black" points="871.25,-269.75 871.25,-292.75 923.58,-292.75 923.58,-269.75 871.25,-269.75"/>
<text text-anchor="start" x="893.67" y="-275.45" font-family="arial" font-size="14.00">1</text>
<polygon fill="none" stroke="black" points="923.58,-269.75 923.58,-292.75 998.92,-292.75 998.92,-269.75 923.58,-269.75"/>
<text text-anchor="start" x="945.88" y="-275.45" font-family="arial" font-size="14.00">GND</text>
<polygon fill="none" stroke="black" points="998.92,-269.75 998.92,-292.75 1051.25,-292.75 1051.25,-269.75 998.92,-269.75"/>
<text text-anchor="start" x="1021.33" y="-275.45" font-family="arial" font-size="14.00">1</text>
<polygon fill="none" stroke="black" points="871.25,-246.75 871.25,-269.75 923.58,-269.75 923.58,-246.75 871.25,-246.75"/>
<text text-anchor="start" x="893.67" y="-252.45" font-family="arial" font-size="14.00">2</text>
<polygon fill="none" stroke="black" points="923.58,-246.75 923.58,-269.75 998.92,-269.75 998.92,-246.75 923.58,-246.75"/>
<text text-anchor="start" x="947" y="-252.45" font-family="arial" font-size="14.00">VCC</text>
<polygon fill="none" stroke="black" points="998.92,-246.75 998.92,-269.75 1051.25,-269.75 1051.25,-246.75 998.92,-246.75"/>
<text text-anchor="start" x="1021.33" y="-252.45" font-family="arial" font-size="14.00">2</text>
<polygon fill="none" stroke="black" points="871.25,-223.75 871.25,-246.75 923.58,-246.75 923.58,-223.75 871.25,-223.75"/>
<text text-anchor="start" x="893.67" y="-229.45" font-family="arial" font-size="14.00">3</text>
<polygon fill="none" stroke="black" points="923.58,-223.75 923.58,-246.75 998.92,-246.75 998.92,-223.75 923.58,-223.75"/>
<text text-anchor="start" x="948.12" y="-229.45" font-family="arial" font-size="14.00">SCL</text>
<polygon fill="none" stroke="black" points="998.92,-223.75 998.92,-246.75 1051.25,-246.75 1051.25,-223.75 998.92,-223.75"/>
<text text-anchor="start" x="1021.33" y="-229.45" font-family="arial" font-size="14.00">3</text>
<polygon fill="none" stroke="black" points="871.25,-200.75 871.25,-223.75 923.58,-223.75 923.58,-200.75 871.25,-200.75"/>
<text text-anchor="start" x="893.67" y="-206.45" font-family="arial" font-size="14.00">4</text>
<polygon fill="none" stroke="black" points="923.58,-200.75 923.58,-223.75 998.92,-223.75 998.92,-200.75 923.58,-200.75"/>
<text text-anchor="start" x="947.38" y="-206.45" font-family="arial" font-size="14.00">SDA</text>
<polygon fill="none" stroke="black" points="998.92,-200.75 998.92,-223.75 1051.25,-223.75 1051.25,-200.75 998.92,-200.75"/>
<text text-anchor="start" x="1021.33" y="-206.45" font-family="arial" font-size="14.00">4</text>
<polygon fill="none" stroke="black" points="871.25,-177 871.25,-200.75 1051.25,-200.75 1051.25,-177 871.25,-177"/>
<text text-anchor="start" x="910.62" y="-183.45" font-family="arial" font-size="14.00">to accelerometer</text>
</g>
<!-- W2 -->
<g id="node7" class="node">
<title>W2</title>
<polygon fill="#ffffff" stroke="black" points="1434.75,-381.25 1208.75,-381.25 1208.75,0 1434.75,0 1434.75,-381.25"/>
<polygon fill="none" stroke="black" points="1208.75,-357.5 1208.75,-381.25 1434.75,-381.25 1434.75,-357.5 1208.75,-357.5"/>
<text text-anchor="start" x="1311.25" y="-363.95" font-family="arial" font-size="14.00">W2</text>
<polygon fill="none" stroke="black" points="1208.75,-333.75 1208.75,-357.5 1275.08,-357.5 1275.08,-333.75 1208.75,-333.75"/>
<text text-anchor="start" x="1234.79" y="-340.2" font-family="arial" font-size="14.00">8x</text>
<polygon fill="none" stroke="black" points="1275.08,-333.75 1275.08,-357.5 1348.17,-357.5 1348.17,-333.75 1275.08,-333.75"/>
<text text-anchor="start" x="1301.12" y="-340.2" font-family="arial" font-size="14.00">+ S</text>
<polygon fill="none" stroke="black" points="1348.17,-333.75 1348.17,-357.5 1434.75,-357.5 1434.75,-333.75 1348.17,-333.75"/>
<text text-anchor="start" x="1374.21" y="-340.2" font-family="arial" font-size="14.00">0.1 m</text>
<text text-anchor="start" x="1239.88" y="-318.45" font-family="arial" font-size="14.00"> </text>
<text text-anchor="start" x="1210.62" y="-299.45" font-family="arial" font-size="14.00">X2:1:GND</text>
<text text-anchor="start" x="1276.38" y="-299.45" font-family="arial" font-size="14.00"> &#160;&#160;&#160;&#160;1:WHOG &#160;&#160;&#160;</text>
<text text-anchor="start" x="1370.62" y="-299.45" font-family="arial" font-size="14.00">X3:1:GND</text>
<polygon fill="#000000" stroke="none" points="1208.75,-293.75 1208.75,-295.75 1434.75,-295.75 1434.75,-293.75 1208.75,-293.75"/>
<polygon fill="#ffffff" stroke="none" points="1208.75,-291.75 1208.75,-293.75 1434.75,-293.75 1434.75,-291.75 1208.75,-291.75"/>
<polygon fill="#ff8000" stroke="none" points="1208.75,-289.75 1208.75,-291.75 1434.75,-291.75 1434.75,-289.75 1208.75,-289.75"/>
<polygon fill="#ffffff" stroke="none" points="1208.75,-287.75 1208.75,-289.75 1434.75,-289.75 1434.75,-287.75 1208.75,-287.75"/>
<polygon fill="#000000" stroke="none" points="1208.75,-285.75 1208.75,-287.75 1434.75,-287.75 1434.75,-285.75 1208.75,-285.75"/>
<text text-anchor="start" x="1211.75" y="-270.45" font-family="arial" font-size="14.00">X2:2:VCC</text>
<text text-anchor="start" x="1288" y="-270.45" font-family="arial" font-size="14.00"> &#160;&#160;&#160;&#160;2:OG &#160;&#160;&#160;</text>
<text text-anchor="start" x="1371.75" y="-270.45" font-family="arial" font-size="14.00">X3:2:VCC</text>
<polygon fill="#000000" stroke="none" points="1208.75,-264.75 1208.75,-266.75 1434.75,-266.75 1434.75,-264.75 1208.75,-264.75"/>
<polygon fill="#ff8000" stroke="none" points="1208.75,-262.75 1208.75,-264.75 1434.75,-264.75 1434.75,-262.75 1208.75,-262.75"/>
<polygon fill="#ff8000" stroke="none" points="1208.75,-260.75 1208.75,-262.75 1434.75,-262.75 1434.75,-260.75 1208.75,-260.75"/>
<polygon fill="#ff8000" stroke="none" points="1208.75,-258.75 1208.75,-260.75 1434.75,-260.75 1434.75,-258.75 1208.75,-258.75"/>
<polygon fill="#000000" stroke="none" points="1208.75,-256.75 1208.75,-258.75 1434.75,-258.75 1434.75,-256.75 1208.75,-256.75"/>
<text text-anchor="start" x="1212.88" y="-241.45" font-family="arial" font-size="14.00">X2:3:SCL</text>
<text text-anchor="start" x="1277.12" y="-241.45" font-family="arial" font-size="14.00"> &#160;&#160;&#160;&#160;3:WHGN &#160;&#160;&#160;</text>
<text text-anchor="start" x="1372.88" y="-241.45" font-family="arial" font-size="14.00">X3:3:SCL</text>
<polygon fill="#000000" stroke="none" points="1208.75,-235.75 1208.75,-237.75 1434.75,-237.75 1434.75,-235.75 1208.75,-235.75"/>
<polygon fill="#ffffff" stroke="none" points="1208.75,-233.75 1208.75,-235.75 1434.75,-235.75 1434.75,-233.75 1208.75,-233.75"/>
<polygon fill="#00ff00" stroke="none" points="1208.75,-231.75 1208.75,-233.75 1434.75,-233.75 1434.75,-231.75 1208.75,-231.75"/>
<polygon fill="#ffffff" stroke="none" points="1208.75,-229.75 1208.75,-231.75 1434.75,-231.75 1434.75,-229.75 1208.75,-229.75"/>
<polygon fill="#000000" stroke="none" points="1208.75,-227.75 1208.75,-229.75 1434.75,-229.75 1434.75,-227.75 1208.75,-227.75"/>
<text text-anchor="start" x="1212.12" y="-212.45" font-family="arial" font-size="14.00">X2:4:SDA</text>
<text text-anchor="start" x="1289.88" y="-212.45" font-family="arial" font-size="14.00"> &#160;&#160;&#160;&#160;4:BU &#160;&#160;&#160;</text>
<text text-anchor="start" x="1372.12" y="-212.45" font-family="arial" font-size="14.00">X3:4:SDA</text>
<polygon fill="#000000" stroke="none" points="1208.75,-206.75 1208.75,-208.75 1434.75,-208.75 1434.75,-206.75 1208.75,-206.75"/>
<polygon fill="#0066ff" stroke="none" points="1208.75,-204.75 1208.75,-206.75 1434.75,-206.75 1434.75,-204.75 1208.75,-204.75"/>
<polygon fill="#0066ff" stroke="none" points="1208.75,-202.75 1208.75,-204.75 1434.75,-204.75 1434.75,-202.75 1208.75,-202.75"/>
<polygon fill="#0066ff" stroke="none" points="1208.75,-200.75 1208.75,-202.75 1434.75,-202.75 1434.75,-200.75 1208.75,-200.75"/>
<polygon fill="#000000" stroke="none" points="1208.75,-198.75 1208.75,-200.75 1434.75,-200.75 1434.75,-198.75 1208.75,-198.75"/>
<text text-anchor="start" x="1278.25" y="-183.45" font-family="arial" font-size="14.00"> &#160;&#160;&#160;&#160;5:WHBU &#160;&#160;&#160;</text>
<polygon fill="#000000" stroke="none" points="1208.75,-177.75 1208.75,-179.75 1434.75,-179.75 1434.75,-177.75 1208.75,-177.75"/>
<polygon fill="#ffffff" stroke="none" points="1208.75,-175.75 1208.75,-177.75 1434.75,-177.75 1434.75,-175.75 1208.75,-175.75"/>
<polygon fill="#0066ff" stroke="none" points="1208.75,-173.75 1208.75,-175.75 1434.75,-175.75 1434.75,-173.75 1208.75,-173.75"/>
<polygon fill="#ffffff" stroke="none" points="1208.75,-171.75 1208.75,-173.75 1434.75,-173.75 1434.75,-171.75 1208.75,-171.75"/>
<polygon fill="#000000" stroke="none" points="1208.75,-169.75 1208.75,-171.75 1434.75,-171.75 1434.75,-169.75 1208.75,-169.75"/>
<text text-anchor="start" x="1288.75" y="-154.45" font-family="arial" font-size="14.00"> &#160;&#160;&#160;&#160;6:GN &#160;&#160;&#160;</text>
<polygon fill="#000000" stroke="none" points="1208.75,-148.75 1208.75,-150.75 1434.75,-150.75 1434.75,-148.75 1208.75,-148.75"/>
<polygon fill="#00ff00" stroke="none" points="1208.75,-146.75 1208.75,-148.75 1434.75,-148.75 1434.75,-146.75 1208.75,-146.75"/>
<polygon fill="#00ff00" stroke="none" points="1208.75,-144.75 1208.75,-146.75 1434.75,-146.75 1434.75,-144.75 1208.75,-144.75"/>
<polygon fill="#00ff00" stroke="none" points="1208.75,-142.75 1208.75,-144.75 1434.75,-144.75 1434.75,-142.75 1208.75,-142.75"/>
<polygon fill="#000000" stroke="none" points="1208.75,-140.75 1208.75,-142.75 1434.75,-142.75 1434.75,-140.75 1208.75,-140.75"/>
<text text-anchor="start" x="1278.25" y="-125.45" font-family="arial" font-size="14.00"> &#160;&#160;&#160;&#160;7:WHBN &#160;&#160;&#160;</text>
<polygon fill="#000000" stroke="none" points="1208.75,-119.75 1208.75,-121.75 1434.75,-121.75 1434.75,-119.75 1208.75,-119.75"/>
<polygon fill="#ffffff" stroke="none" points="1208.75,-117.75 1208.75,-119.75 1434.75,-119.75 1434.75,-117.75 1208.75,-117.75"/>
<polygon fill="#895956" stroke="none" points="1208.75,-115.75 1208.75,-117.75 1434.75,-117.75 1434.75,-115.75 1208.75,-115.75"/>
<polygon fill="#ffffff" stroke="none" points="1208.75,-113.75 1208.75,-115.75 1434.75,-115.75 1434.75,-113.75 1208.75,-113.75"/>
<polygon fill="#000000" stroke="none" points="1208.75,-111.75 1208.75,-113.75 1434.75,-113.75 1434.75,-111.75 1208.75,-111.75"/>
<text text-anchor="start" x="1289.88" y="-96.45" font-family="arial" font-size="14.00"> &#160;&#160;&#160;&#160;8:BN &#160;&#160;&#160;</text>
<polygon fill="#000000" stroke="none" points="1208.75,-90.75 1208.75,-92.75 1434.75,-92.75 1434.75,-90.75 1208.75,-90.75"/>
<polygon fill="#895956" stroke="none" points="1208.75,-88.75 1208.75,-90.75 1434.75,-90.75 1434.75,-88.75 1208.75,-88.75"/>
<polygon fill="#895956" stroke="none" points="1208.75,-86.75 1208.75,-88.75 1434.75,-88.75 1434.75,-86.75 1208.75,-86.75"/>
<polygon fill="#895956" stroke="none" points="1208.75,-84.75 1208.75,-86.75 1434.75,-86.75 1434.75,-84.75 1208.75,-84.75"/>
<polygon fill="#000000" stroke="none" points="1208.75,-82.75 1208.75,-84.75 1434.75,-84.75 1434.75,-82.75 1208.75,-82.75"/>
<text text-anchor="start" x="1239.88" y="-67.45" font-family="arial" font-size="14.00"> </text>
<text text-anchor="start" x="1303" y="-48.45" font-family="arial" font-size="14.00">Shield</text>
<polygon fill="#000000" stroke="none" points="1208.75,-42.75 1208.75,-44.75 1434.75,-44.75 1434.75,-42.75 1208.75,-42.75"/>
<text text-anchor="start" x="1239.88" y="-27.45" font-family="arial" font-size="14.00"> </text>
<polygon fill="none" stroke="black" points="1208.75,0 1208.75,-23.75 1434.75,-23.75 1434.75,0 1208.75,0"/>
<text text-anchor="start" x="1246.75" y="-6.45" font-family="arial" font-size="14.00">This cable is a bit shorter</text>
</g>
<!-- X2&#45;&#45;W2 -->
<g id="edge9" class="edge">
<title>X2:e&#45;&#45;W2:w</title>
<path fill="none" stroke="#000000" stroke-width="2" d="M1052.25,-277.25C1123.87,-277.75 1141.01,-287.25 1208.75,-286.75"/>
<path fill="none" stroke="#ffffff" stroke-width="2" d="M1052.25,-279.25C1122.9,-279.5 1140.04,-289 1208.75,-288.75"/>
<path fill="none" stroke="#ff8000" stroke-width="2" d="M1052.25,-281.25C1121.93,-281.25 1139.07,-290.75 1208.75,-290.75"/>
<path fill="none" stroke="#ffffff" stroke-width="2" d="M1052.25,-283.25C1120.96,-283 1138.1,-292.5 1208.75,-292.75"/>
<path fill="none" stroke="#000000" stroke-width="2" d="M1052.25,-285.25C1119.99,-284.75 1137.13,-294.25 1208.75,-294.75"/>
</g>
<!-- X2&#45;&#45;W2 -->
<g id="edge11" class="edge">
<title>X2:e&#45;&#45;W2:w</title>
<path fill="none" stroke="#000000" stroke-width="2" d="M1052.25,-254.25C1122.61,-254.33 1139.97,-257.83 1208.75,-257.75"/>
<path fill="none" stroke="#ff8000" stroke-width="2" d="M1052.25,-256.25C1122.22,-256.29 1139.57,-259.79 1208.75,-259.75"/>
<path fill="none" stroke="#ff8000" stroke-width="2" d="M1052.25,-258.25C1121.82,-258.25 1139.18,-261.75 1208.75,-261.75"/>
<path fill="none" stroke="#ff8000" stroke-width="2" d="M1052.25,-260.25C1121.43,-260.21 1138.78,-263.71 1208.75,-263.75"/>
<path fill="none" stroke="#000000" stroke-width="2" d="M1052.25,-262.25C1121.03,-262.17 1138.39,-265.67 1208.75,-265.75"/>
</g>
<!-- X2&#45;&#45;W2 -->
<g id="edge13" class="edge">
<title>X2:e&#45;&#45;W2:w</title>
<path fill="none" stroke="#000000" stroke-width="2" d="M1052.25,-231.25C1121.24,-231.29 1138.62,-228.79 1208.75,-228.75"/>
<path fill="none" stroke="#ffffff" stroke-width="2" d="M1052.25,-233.25C1121.53,-233.27 1138.9,-230.77 1208.75,-230.75"/>
<path fill="none" stroke="#00ff00" stroke-width="2" d="M1052.25,-235.25C1121.81,-235.25 1139.19,-232.75 1208.75,-232.75"/>
<path fill="none" stroke="#ffffff" stroke-width="2" d="M1052.25,-237.25C1122.1,-237.23 1139.47,-234.73 1208.75,-234.75"/>
<path fill="none" stroke="#000000" stroke-width="2" d="M1052.25,-239.25C1122.38,-239.21 1139.76,-236.71 1208.75,-236.75"/>
</g>
<!-- X2&#45;&#45;W2 -->
<g id="edge15" class="edge">
<title>X2:e&#45;&#45;W2:w</title>
<path fill="none" stroke="#000000" stroke-width="2" d="M1052.25,-208.25C1120.13,-208.66 1137.32,-200.16 1208.75,-199.75"/>
<path fill="none" stroke="#0066ff" stroke-width="2" d="M1052.25,-210.25C1121.02,-210.46 1138.21,-201.96 1208.75,-201.75"/>
<path fill="none" stroke="#0066ff" stroke-width="2" d="M1052.25,-212.25C1121.91,-212.25 1139.09,-203.75 1208.75,-203.75"/>
<path fill="none" stroke="#0066ff" stroke-width="2" d="M1052.25,-214.25C1122.79,-214.04 1139.98,-205.54 1208.75,-205.75"/>
<path fill="none" stroke="#000000" stroke-width="2" d="M1052.25,-216.25C1123.68,-215.84 1140.87,-207.34 1208.75,-207.75"/>
</g>
<!-- X3 -->
<g id="node3" class="node">
<title>X3</title>
<polygon fill="#ffffff" stroke="black" points="1758.75,-340.25 1578.75,-340.25 1578.75,-177 1758.75,-177 1758.75,-340.25"/>
<polygon fill="none" stroke="black" points="1578.75,-316.5 1578.75,-340.25 1758.75,-340.25 1758.75,-316.5 1578.75,-316.5"/>
<text text-anchor="start" x="1660.5" y="-322.95" font-family="arial" font-size="14.00">X3</text>
<polygon fill="none" stroke="black" points="1578.75,-292.75 1578.75,-316.5 1671.5,-316.5 1671.5,-292.75 1578.75,-292.75"/>
<text text-anchor="start" x="1582.75" y="-299.2" font-family="arial" font-size="14.00">Molex KK 254</text>
<polygon fill="none" stroke="black" points="1671.5,-292.75 1671.5,-316.5 1720.75,-316.5 1720.75,-292.75 1671.5,-292.75"/>
<text text-anchor="start" x="1675.5" y="-299.2" font-family="arial" font-size="14.00">female</text>
<polygon fill="none" stroke="black" points="1720.75,-292.75 1720.75,-316.5 1758.75,-316.5 1758.75,-292.75 1720.75,-292.75"/>
<text text-anchor="start" x="1724.75" y="-299.2" font-family="arial" font-size="14.00">4&#45;pin</text>
<polygon fill="none" stroke="black" points="1578.75,-269.75 1578.75,-292.75 1657.25,-292.75 1657.25,-269.75 1578.75,-269.75"/>
<text text-anchor="start" x="1614.25" y="-275.45" font-family="arial" font-size="14.00">1</text>
<polygon fill="none" stroke="black" points="1657.25,-269.75 1657.25,-292.75 1758.75,-292.75 1758.75,-269.75 1657.25,-269.75"/>
<text text-anchor="start" x="1692.62" y="-275.45" font-family="arial" font-size="14.00">GND</text>
<polygon fill="none" stroke="black" points="1578.75,-246.75 1578.75,-269.75 1657.25,-269.75 1657.25,-246.75 1578.75,-246.75"/>
<text text-anchor="start" x="1614.25" y="-252.45" font-family="arial" font-size="14.00">2</text>
<polygon fill="none" stroke="black" points="1657.25,-246.75 1657.25,-269.75 1758.75,-269.75 1758.75,-246.75 1657.25,-246.75"/>
<text text-anchor="start" x="1693.75" y="-252.45" font-family="arial" font-size="14.00">VCC</text>
<polygon fill="none" stroke="black" points="1578.75,-223.75 1578.75,-246.75 1657.25,-246.75 1657.25,-223.75 1578.75,-223.75"/>
<text text-anchor="start" x="1614.25" y="-229.45" font-family="arial" font-size="14.00">3</text>
<polygon fill="none" stroke="black" points="1657.25,-223.75 1657.25,-246.75 1758.75,-246.75 1758.75,-223.75 1657.25,-223.75"/>
<text text-anchor="start" x="1694.88" y="-229.45" font-family="arial" font-size="14.00">SCL</text>
<polygon fill="none" stroke="black" points="1578.75,-200.75 1578.75,-223.75 1657.25,-223.75 1657.25,-200.75 1578.75,-200.75"/>
<text text-anchor="start" x="1614.25" y="-206.45" font-family="arial" font-size="14.00">4</text>
<polygon fill="none" stroke="black" points="1657.25,-200.75 1657.25,-223.75 1758.75,-223.75 1758.75,-200.75 1657.25,-200.75"/>
<text text-anchor="start" x="1694.12" y="-206.45" font-family="arial" font-size="14.00">SDA</text>
<polygon fill="none" stroke="black" points="1578.75,-177 1578.75,-200.75 1758.75,-200.75 1758.75,-177 1578.75,-177"/>
<text text-anchor="start" x="1602.38" y="-183.45" font-family="arial" font-size="14.00">to temperature sensor</text>
</g>
<!-- Aviation&#45;Plug&#45;M&#45;4 -->
<g id="node4" class="node">
<title>Aviation&#45;Plug&#45;M&#45;4</title>
<polygon fill="#ffffff" stroke="black" points="195.75,-721.25 0,-721.25 0,-558 195.75,-558 195.75,-721.25"/>
<polygon fill="none" stroke="black" points="0,-697.5 0,-721.25 195.75,-721.25 195.75,-697.5 0,-697.5"/>
<text text-anchor="start" x="43.88" y="-703.95" font-family="arial" font-size="14.00">Aviation&#45;Plug&#45;M&#45;4</text>
<polygon fill="none" stroke="black" points="0,-673.75 0,-697.5 119.75,-697.5 119.75,-673.75 0,-673.75"/>
<text text-anchor="start" x="4" y="-680.2" font-family="arial" font-size="14.00">Aviation Plug 4 pin</text>
<polygon fill="none" stroke="black" points="119.75,-673.75 119.75,-697.5 157.75,-697.5 157.75,-673.75 119.75,-673.75"/>
<text text-anchor="start" x="123.75" y="-680.2" font-family="arial" font-size="14.00">male</text>
<polygon fill="none" stroke="black" points="157.75,-673.75 157.75,-697.5 195.75,-697.5 195.75,-673.75 157.75,-673.75"/>
<text text-anchor="start" x="161.75" y="-680.2" font-family="arial" font-size="14.00">4&#45;pin</text>
<polygon fill="none" stroke="black" points="0,-650.75 0,-673.75 101.88,-673.75 101.88,-650.75 0,-650.75"/>
<text text-anchor="start" x="43.44" y="-656.45" font-family="arial" font-size="14.00">L1</text>
<polygon fill="none" stroke="black" points="101.88,-650.75 101.88,-673.75 195.75,-673.75 195.75,-650.75 101.88,-650.75"/>
<text text-anchor="start" x="145.06" y="-656.45" font-family="arial" font-size="14.00">1</text>
<polygon fill="none" stroke="black" points="0,-627.75 0,-650.75 101.88,-650.75 101.88,-627.75 0,-627.75"/>
<text text-anchor="start" x="43.44" y="-633.45" font-family="arial" font-size="14.00">L2</text>
<polygon fill="none" stroke="black" points="101.88,-627.75 101.88,-650.75 195.75,-650.75 195.75,-627.75 101.88,-627.75"/>
<text text-anchor="start" x="145.06" y="-633.45" font-family="arial" font-size="14.00">2</text>
<polygon fill="none" stroke="black" points="0,-604.75 0,-627.75 101.88,-627.75 101.88,-604.75 0,-604.75"/>
<text text-anchor="start" x="43.44" y="-610.45" font-family="arial" font-size="14.00">L3</text>
<polygon fill="none" stroke="black" points="101.88,-604.75 101.88,-627.75 195.75,-627.75 195.75,-604.75 101.88,-604.75"/>
<text text-anchor="start" x="145.06" y="-610.45" font-family="arial" font-size="14.00">3</text>
<polygon fill="none" stroke="black" points="0,-581.75 0,-604.75 101.88,-604.75 101.88,-581.75 0,-581.75"/>
<text text-anchor="start" x="43.44" y="-587.45" font-family="arial" font-size="14.00">L4</text>
<polygon fill="none" stroke="black" points="101.88,-581.75 101.88,-604.75 195.75,-604.75 195.75,-581.75 101.88,-581.75"/>
<text text-anchor="start" x="145.06" y="-587.45" font-family="arial" font-size="14.00">4</text>
<polygon fill="none" stroke="black" points="0,-558 0,-581.75 195.75,-581.75 195.75,-558 0,-558"/>
<text text-anchor="start" x="11.62" y="-564.45" font-family="arial" font-size="14.00">Male plug Aviation plug 2 pin</text>
</g>
<!-- WAIR1 -->
<g id="node8" class="node">
<title>WAIR1</title>
<polygon fill="#ffffff" stroke="black" points="713.75,-762.38 339.75,-762.38 339.75,-404.88 713.75,-404.88 713.75,-762.38"/>
<polygon fill="none" stroke="black" points="339.75,-738.62 339.75,-762.38 713.75,-762.38 713.75,-738.62 339.75,-738.62"/>
<text text-anchor="start" x="505.38" y="-745.08" font-family="arial" font-size="14.00">WAIR1</text>
<polygon fill="none" stroke="black" points="339.75,-714.88 339.75,-738.62 455.42,-738.62 455.42,-714.88 339.75,-714.88"/>
<text text-anchor="start" x="390.46" y="-721.33" font-family="arial" font-size="14.00">8x</text>
<polygon fill="none" stroke="black" points="455.42,-714.88 455.42,-738.62 577.83,-738.62 577.83,-714.88 455.42,-714.88"/>
<text text-anchor="start" x="506.12" y="-721.33" font-family="arial" font-size="14.00">+ S</text>
<polygon fill="none" stroke="black" points="577.83,-714.88 577.83,-738.62 713.75,-738.62 713.75,-714.88 577.83,-714.88"/>
<text text-anchor="start" x="628.54" y="-721.33" font-family="arial" font-size="14.00">2.1 m</text>
<text text-anchor="start" x="408.88" y="-699.58" font-family="arial" font-size="14.00"> </text>
<text text-anchor="start" x="341.75" y="-680.58" font-family="arial" font-size="14.00">Aviation&#45;Plug&#45;M&#45;4:1:L1</text>
<text text-anchor="start" x="483.38" y="-680.58" font-family="arial" font-size="14.00"> &#160;&#160;&#160;&#160;1:WHOG &#160;&#160;&#160;</text>
<text text-anchor="start" x="577.62" y="-680.58" font-family="arial" font-size="14.00">Aviation&#45;Plug&#45;F&#45;4:1:L1</text>
<polygon fill="#000000" stroke="none" points="339.75,-674.88 339.75,-676.88 713.75,-676.88 713.75,-674.88 339.75,-674.88"/>
<polygon fill="#ffffff" stroke="none" points="339.75,-672.88 339.75,-674.88 713.75,-674.88 713.75,-672.88 339.75,-672.88"/>
<polygon fill="#ff8000" stroke="none" points="339.75,-670.88 339.75,-672.88 713.75,-672.88 713.75,-670.88 339.75,-670.88"/>
<polygon fill="#ffffff" stroke="none" points="339.75,-668.88 339.75,-670.88 713.75,-670.88 713.75,-668.88 339.75,-668.88"/>
<polygon fill="#000000" stroke="none" points="339.75,-666.88 339.75,-668.88 713.75,-668.88 713.75,-666.88 339.75,-666.88"/>
<text text-anchor="start" x="341.75" y="-651.58" font-family="arial" font-size="14.00">Aviation&#45;Plug&#45;M&#45;4:2:L2</text>
<text text-anchor="start" x="495" y="-651.58" font-family="arial" font-size="14.00"> &#160;&#160;&#160;&#160;2:OG &#160;&#160;&#160;</text>
<text text-anchor="start" x="577.62" y="-651.58" font-family="arial" font-size="14.00">Aviation&#45;Plug&#45;F&#45;4:2:L2</text>
<polygon fill="#000000" stroke="none" points="339.75,-645.88 339.75,-647.88 713.75,-647.88 713.75,-645.88 339.75,-645.88"/>
<polygon fill="#ff8000" stroke="none" points="339.75,-643.88 339.75,-645.88 713.75,-645.88 713.75,-643.88 339.75,-643.88"/>
<polygon fill="#ff8000" stroke="none" points="339.75,-641.88 339.75,-643.88 713.75,-643.88 713.75,-641.88 339.75,-641.88"/>
<polygon fill="#ff8000" stroke="none" points="339.75,-639.88 339.75,-641.88 713.75,-641.88 713.75,-639.88 339.75,-639.88"/>
<polygon fill="#000000" stroke="none" points="339.75,-637.88 339.75,-639.88 713.75,-639.88 713.75,-637.88 339.75,-637.88"/>
<text text-anchor="start" x="341.75" y="-622.58" font-family="arial" font-size="14.00">Aviation&#45;Plug&#45;M&#45;4:3:L3</text>
<text text-anchor="start" x="484.12" y="-622.58" font-family="arial" font-size="14.00"> &#160;&#160;&#160;&#160;3:WHGN &#160;&#160;&#160;</text>
<text text-anchor="start" x="577.62" y="-622.58" font-family="arial" font-size="14.00">Aviation&#45;Plug&#45;F&#45;4:3:L3</text>
<polygon fill="#000000" stroke="none" points="339.75,-616.88 339.75,-618.88 713.75,-618.88 713.75,-616.88 339.75,-616.88"/>
<polygon fill="#ffffff" stroke="none" points="339.75,-614.88 339.75,-616.88 713.75,-616.88 713.75,-614.88 339.75,-614.88"/>
<polygon fill="#00ff00" stroke="none" points="339.75,-612.88 339.75,-614.88 713.75,-614.88 713.75,-612.88 339.75,-612.88"/>
<polygon fill="#ffffff" stroke="none" points="339.75,-610.88 339.75,-612.88 713.75,-612.88 713.75,-610.88 339.75,-610.88"/>
<polygon fill="#000000" stroke="none" points="339.75,-608.88 339.75,-610.88 713.75,-610.88 713.75,-608.88 339.75,-608.88"/>
<text text-anchor="start" x="341.75" y="-593.58" font-family="arial" font-size="14.00">Aviation&#45;Plug&#45;M&#45;4:4:L4</text>
<text text-anchor="start" x="496.88" y="-593.58" font-family="arial" font-size="14.00"> &#160;&#160;&#160;&#160;4:BU &#160;&#160;&#160;</text>
<text text-anchor="start" x="577.62" y="-593.58" font-family="arial" font-size="14.00">Aviation&#45;Plug&#45;F&#45;4:4:L4</text>
<polygon fill="#000000" stroke="none" points="339.75,-587.88 339.75,-589.88 713.75,-589.88 713.75,-587.88 339.75,-587.88"/>
<polygon fill="#0066ff" stroke="none" points="339.75,-585.88 339.75,-587.88 713.75,-587.88 713.75,-585.88 339.75,-585.88"/>
<polygon fill="#0066ff" stroke="none" points="339.75,-583.88 339.75,-585.88 713.75,-585.88 713.75,-583.88 339.75,-583.88"/>
<polygon fill="#0066ff" stroke="none" points="339.75,-581.88 339.75,-583.88 713.75,-583.88 713.75,-581.88 339.75,-581.88"/>
<polygon fill="#000000" stroke="none" points="339.75,-579.88 339.75,-581.88 713.75,-581.88 713.75,-579.88 339.75,-579.88"/>
<text text-anchor="start" x="485.25" y="-564.58" font-family="arial" font-size="14.00"> &#160;&#160;&#160;&#160;5:WHBU &#160;&#160;&#160;</text>
<polygon fill="#000000" stroke="none" points="339.75,-558.88 339.75,-560.88 713.75,-560.88 713.75,-558.88 339.75,-558.88"/>
<polygon fill="#ffffff" stroke="none" points="339.75,-556.88 339.75,-558.88 713.75,-558.88 713.75,-556.88 339.75,-556.88"/>
<polygon fill="#0066ff" stroke="none" points="339.75,-554.88 339.75,-556.88 713.75,-556.88 713.75,-554.88 339.75,-554.88"/>
<polygon fill="#ffffff" stroke="none" points="339.75,-552.88 339.75,-554.88 713.75,-554.88 713.75,-552.88 339.75,-552.88"/>
<polygon fill="#000000" stroke="none" points="339.75,-550.88 339.75,-552.88 713.75,-552.88 713.75,-550.88 339.75,-550.88"/>
<text text-anchor="start" x="495.75" y="-535.58" font-family="arial" font-size="14.00"> &#160;&#160;&#160;&#160;6:GN &#160;&#160;&#160;</text>
<polygon fill="#000000" stroke="none" points="339.75,-529.88 339.75,-531.88 713.75,-531.88 713.75,-529.88 339.75,-529.88"/>
<polygon fill="#00ff00" stroke="none" points="339.75,-527.88 339.75,-529.88 713.75,-529.88 713.75,-527.88 339.75,-527.88"/>
<polygon fill="#00ff00" stroke="none" points="339.75,-525.88 339.75,-527.88 713.75,-527.88 713.75,-525.88 339.75,-525.88"/>
<polygon fill="#00ff00" stroke="none" points="339.75,-523.88 339.75,-525.88 713.75,-525.88 713.75,-523.88 339.75,-523.88"/>
<polygon fill="#000000" stroke="none" points="339.75,-521.88 339.75,-523.88 713.75,-523.88 713.75,-521.88 339.75,-521.88"/>
<text text-anchor="start" x="485.25" y="-506.57" font-family="arial" font-size="14.00"> &#160;&#160;&#160;&#160;7:WHBN &#160;&#160;&#160;</text>
<polygon fill="#000000" stroke="none" points="339.75,-500.88 339.75,-502.88 713.75,-502.88 713.75,-500.88 339.75,-500.88"/>
<polygon fill="#ffffff" stroke="none" points="339.75,-498.88 339.75,-500.88 713.75,-500.88 713.75,-498.88 339.75,-498.88"/>
<polygon fill="#895956" stroke="none" points="339.75,-496.88 339.75,-498.88 713.75,-498.88 713.75,-496.88 339.75,-496.88"/>
<polygon fill="#ffffff" stroke="none" points="339.75,-494.88 339.75,-496.88 713.75,-496.88 713.75,-494.88 339.75,-494.88"/>
<polygon fill="#000000" stroke="none" points="339.75,-492.88 339.75,-494.88 713.75,-494.88 713.75,-492.88 339.75,-492.88"/>
<text text-anchor="start" x="496.88" y="-477.57" font-family="arial" font-size="14.00"> &#160;&#160;&#160;&#160;8:BN &#160;&#160;&#160;</text>
<polygon fill="#000000" stroke="none" points="339.75,-471.88 339.75,-473.88 713.75,-473.88 713.75,-471.88 339.75,-471.88"/>
<polygon fill="#895956" stroke="none" points="339.75,-469.88 339.75,-471.88 713.75,-471.88 713.75,-469.88 339.75,-469.88"/>
<polygon fill="#895956" stroke="none" points="339.75,-467.88 339.75,-469.88 713.75,-469.88 713.75,-467.88 339.75,-467.88"/>
<polygon fill="#895956" stroke="none" points="339.75,-465.88 339.75,-467.88 713.75,-467.88 713.75,-465.88 339.75,-465.88"/>
<polygon fill="#000000" stroke="none" points="339.75,-463.88 339.75,-465.88 713.75,-465.88 713.75,-463.88 339.75,-463.88"/>
<text text-anchor="start" x="408.88" y="-448.57" font-family="arial" font-size="14.00"> </text>
<text text-anchor="start" x="510" y="-429.57" font-family="arial" font-size="14.00">Shield</text>
<polygon fill="#000000" stroke="none" points="339.75,-423.88 339.75,-425.88 713.75,-425.88 713.75,-423.88 339.75,-423.88"/>
<text text-anchor="start" x="408.88" y="-408.57" font-family="arial" font-size="14.00"> </text>
</g>
<!-- Aviation&#45;Plug&#45;M&#45;4&#45;&#45;WAIR1 -->
<g id="edge17" class="edge">
<title>Aviation&#45;Plug&#45;M&#45;4:e&#45;&#45;WAIR1:w</title>
<path fill="none" stroke="#000000" stroke-width="2" d="M195.75,-658.25C261.98,-658.84 277.7,-668.46 339.75,-667.88"/>
<path fill="none" stroke="#ffffff" stroke-width="2" d="M195.75,-660.25C260.94,-660.54 276.65,-670.17 339.75,-669.88"/>
<path fill="none" stroke="#ff8000" stroke-width="2" d="M195.75,-662.25C259.89,-662.25 275.61,-671.87 339.75,-671.88"/>
<path fill="none" stroke="#ffffff" stroke-width="2" d="M195.75,-664.25C258.85,-663.96 274.56,-673.58 339.75,-673.87"/>
<path fill="none" stroke="#000000" stroke-width="2" d="M195.75,-666.25C257.8,-665.66 273.52,-675.29 339.75,-675.87"/>
</g>
<!-- Aviation&#45;Plug&#45;M&#45;4&#45;&#45;WAIR1 -->
<g id="edge19" class="edge">
<title>Aviation&#45;Plug&#45;M&#45;4:e&#45;&#45;WAIR1:w</title>
<path fill="none" stroke="#000000" stroke-width="2" d="M195.75,-635.25C260.66,-635.35 276.62,-638.97 339.75,-638.88"/>
<path fill="none" stroke="#ff8000" stroke-width="2" d="M195.75,-637.25C260.21,-637.3 276.17,-640.92 339.75,-640.88"/>
<path fill="none" stroke="#ff8000" stroke-width="2" d="M195.75,-639.25C259.77,-639.25 275.73,-642.88 339.75,-642.88"/>
<path fill="none" stroke="#ff8000" stroke-width="2" d="M195.75,-641.25C259.33,-641.2 275.29,-644.83 339.75,-644.87"/>
<path fill="none" stroke="#000000" stroke-width="2" d="M195.75,-643.25C258.88,-643.15 274.84,-646.78 339.75,-646.87"/>
</g>
<!-- Aviation&#45;Plug&#45;M&#45;4&#45;&#45;WAIR1 -->
<g id="edge21" class="edge">
<title>Aviation&#45;Plug&#45;M&#45;4:e&#45;&#45;WAIR1:w</title>
<path fill="none" stroke="#000000" stroke-width="2" d="M195.75,-612.25C259.17,-612.29 275.15,-609.92 339.75,-609.88"/>
<path fill="none" stroke="#ffffff" stroke-width="2" d="M195.75,-614.25C259.46,-614.27 275.45,-611.9 339.75,-611.88"/>
<path fill="none" stroke="#00ff00" stroke-width="2" d="M195.75,-616.25C259.76,-616.25 275.74,-613.87 339.75,-613.88"/>
<path fill="none" stroke="#ffffff" stroke-width="2" d="M195.75,-618.25C260.05,-618.23 276.04,-615.85 339.75,-615.87"/>
<path fill="none" stroke="#000000" stroke-width="2" d="M195.75,-620.25C260.35,-620.21 276.33,-617.83 339.75,-617.87"/>
</g>
<!-- Aviation&#45;Plug&#45;M&#45;4&#45;&#45;WAIR1 -->
<g id="edge23" class="edge">
<title>Aviation&#45;Plug&#45;M&#45;4:e&#45;&#45;WAIR1:w</title>
<path fill="none" stroke="#000000" stroke-width="2" d="M195.75,-589.25C257.98,-589.72 273.77,-581.34 339.75,-580.88"/>
<path fill="none" stroke="#0066ff" stroke-width="2" d="M195.75,-591.25C258.92,-591.48 274.7,-583.11 339.75,-582.88"/>
<path fill="none" stroke="#0066ff" stroke-width="2" d="M195.75,-593.25C259.86,-593.25 275.64,-584.87 339.75,-584.88"/>
<path fill="none" stroke="#0066ff" stroke-width="2" d="M195.75,-595.25C260.8,-595.02 276.58,-586.64 339.75,-586.87"/>
<path fill="none" stroke="#000000" stroke-width="2" d="M195.75,-597.25C261.73,-596.78 277.52,-588.41 339.75,-588.87"/>
</g>
<!-- Aviation&#45;Plug&#45;F&#45;4 -->
<g id="node5" class="node">
<title>Aviation&#45;Plug&#45;F&#45;4</title>
<polygon fill="#ffffff" stroke="black" points="1064.75,-721.25 857.75,-721.25 857.75,-558 1064.75,-558 1064.75,-721.25"/>
<polygon fill="none" stroke="black" points="857.75,-697.5 857.75,-721.25 1064.75,-721.25 1064.75,-697.5 857.75,-697.5"/>
<text text-anchor="start" x="909.12" y="-703.95" font-family="arial" font-size="14.00">Aviation&#45;Plug&#45;F&#45;4</text>
<polygon fill="none" stroke="black" points="857.75,-673.75 857.75,-697.5 977.5,-697.5 977.5,-673.75 857.75,-673.75"/>
<text text-anchor="start" x="861.75" y="-680.2" font-family="arial" font-size="14.00">Aviation Plug 4 pin</text>
<polygon fill="none" stroke="black" points="977.5,-673.75 977.5,-697.5 1026.75,-697.5 1026.75,-673.75 977.5,-673.75"/>
<text text-anchor="start" x="981.5" y="-680.2" font-family="arial" font-size="14.00">female</text>
<polygon fill="none" stroke="black" points="1026.75,-673.75 1026.75,-697.5 1064.75,-697.5 1064.75,-673.75 1026.75,-673.75"/>
<text text-anchor="start" x="1030.75" y="-680.2" font-family="arial" font-size="14.00">4&#45;pin</text>
<polygon fill="none" stroke="black" points="857.75,-650.75 857.75,-673.75 957.25,-673.75 957.25,-650.75 857.75,-650.75"/>
<text text-anchor="start" x="903.75" y="-656.45" font-family="arial" font-size="14.00">1</text>
<polygon fill="none" stroke="black" points="957.25,-650.75 957.25,-673.75 1064.75,-673.75 1064.75,-650.75 957.25,-650.75"/>
<text text-anchor="start" x="1003.5" y="-656.45" font-family="arial" font-size="14.00">L1</text>
<polygon fill="none" stroke="black" points="857.75,-627.75 857.75,-650.75 957.25,-650.75 957.25,-627.75 857.75,-627.75"/>
<text text-anchor="start" x="903.75" y="-633.45" font-family="arial" font-size="14.00">2</text>
<polygon fill="none" stroke="black" points="957.25,-627.75 957.25,-650.75 1064.75,-650.75 1064.75,-627.75 957.25,-627.75"/>
<text text-anchor="start" x="1003.5" y="-633.45" font-family="arial" font-size="14.00">L2</text>
<polygon fill="none" stroke="black" points="857.75,-604.75 857.75,-627.75 957.25,-627.75 957.25,-604.75 857.75,-604.75"/>
<text text-anchor="start" x="903.75" y="-610.45" font-family="arial" font-size="14.00">3</text>
<polygon fill="none" stroke="black" points="957.25,-604.75 957.25,-627.75 1064.75,-627.75 1064.75,-604.75 957.25,-604.75"/>
<text text-anchor="start" x="1003.5" y="-610.45" font-family="arial" font-size="14.00">L3</text>
<polygon fill="none" stroke="black" points="857.75,-581.75 857.75,-604.75 957.25,-604.75 957.25,-581.75 857.75,-581.75"/>
<text text-anchor="start" x="903.75" y="-587.45" font-family="arial" font-size="14.00">4</text>
<polygon fill="none" stroke="black" points="957.25,-581.75 957.25,-604.75 1064.75,-604.75 1064.75,-581.75 957.25,-581.75"/>
<text text-anchor="start" x="1003.5" y="-587.45" font-family="arial" font-size="14.00">L4</text>
<polygon fill="none" stroke="black" points="857.75,-558 857.75,-581.75 1064.75,-581.75 1064.75,-558 857.75,-558"/>
<text text-anchor="start" x="875" y="-564.45" font-family="arial" font-size="14.00">Male plug Aviation plug 2 pin</text>
</g>
<!-- W1&#45;&#45;X2 -->
<g id="edge2" class="edge">
<title>W1:e&#45;&#45;X2:w</title>
<path fill="none" stroke="#000000" stroke-width="2" d="M640.75,-286.75C741.43,-287 766.76,-277.5 870.25,-277.25"/>
<path fill="none" stroke="#ffffff" stroke-width="2" d="M640.75,-288.75C742.13,-288.88 767.46,-279.38 870.25,-279.25"/>
<path fill="none" stroke="#ff8000" stroke-width="2" d="M640.75,-290.75C742.84,-290.75 768.16,-281.25 870.25,-281.25"/>
<path fill="none" stroke="#ffffff" stroke-width="2" d="M640.75,-292.75C743.54,-292.62 768.87,-283.12 870.25,-283.25"/>
<path fill="none" stroke="#000000" stroke-width="2" d="M640.75,-294.75C744.24,-294.5 769.57,-285 870.25,-285.25"/>
</g>
<!-- W1&#45;&#45;X2 -->
<g id="edge4" class="edge">
<title>W1:e&#45;&#45;X2:w</title>
<path fill="none" stroke="#000000" stroke-width="2" d="M640.75,-257.75C742.22,-257.79 767.69,-254.29 870.25,-254.25"/>
<path fill="none" stroke="#ff8000" stroke-width="2" d="M640.75,-259.75C742.49,-259.77 767.97,-256.27 870.25,-256.25"/>
<path fill="none" stroke="#ff8000" stroke-width="2" d="M640.75,-261.75C742.76,-261.75 768.24,-258.25 870.25,-258.25"/>
<path fill="none" stroke="#ff8000" stroke-width="2" d="M640.75,-263.75C743.03,-263.73 768.51,-260.23 870.25,-260.25"/>
<path fill="none" stroke="#000000" stroke-width="2" d="M640.75,-265.75C743.31,-265.71 768.78,-262.21 870.25,-262.25"/>
</g>
<!-- W1&#45;&#45;X2 -->
<g id="edge6" class="edge">
<title>W1:e&#45;&#45;X2:w</title>
<path fill="none" stroke="#000000" stroke-width="2" d="M640.75,-228.75C743.15,-228.77 768.63,-231.27 870.25,-231.25"/>
<path fill="none" stroke="#ffffff" stroke-width="2" d="M640.75,-230.75C742.95,-230.76 768.44,-233.26 870.25,-233.25"/>
<path fill="none" stroke="#00ff00" stroke-width="2" d="M640.75,-232.75C742.76,-232.75 768.24,-235.25 870.25,-235.25"/>
<path fill="none" stroke="#ffffff" stroke-width="2" d="M640.75,-234.75C742.56,-234.74 768.05,-237.24 870.25,-237.25"/>
<path fill="none" stroke="#000000" stroke-width="2" d="M640.75,-236.75C742.37,-236.73 767.85,-239.23 870.25,-239.25"/>
</g>
<!-- W1&#45;&#45;X2 -->
<g id="edge8" class="edge">
<title>W1:e&#45;&#45;X2:w</title>
<path fill="none" stroke="#000000" stroke-width="2" d="M640.75,-199.75C744.09,-199.96 769.45,-208.46 870.25,-208.25"/>
<path fill="none" stroke="#0066ff" stroke-width="2" d="M640.75,-201.75C743.46,-201.85 768.82,-210.35 870.25,-210.25"/>
<path fill="none" stroke="#0066ff" stroke-width="2" d="M640.75,-203.75C742.82,-203.75 768.18,-212.25 870.25,-212.25"/>
<path fill="none" stroke="#0066ff" stroke-width="2" d="M640.75,-205.75C742.18,-205.65 767.54,-214.15 870.25,-214.25"/>
<path fill="none" stroke="#000000" stroke-width="2" d="M640.75,-207.75C741.55,-207.54 766.91,-216.04 870.25,-216.25"/>
</g>
<!-- W2&#45;&#45;X3 -->
<g id="edge10" class="edge">
<title>W2:e&#45;&#45;X3:w</title>
<path fill="none" stroke="#000000" stroke-width="2" d="M1434.75,-286.75C1496.82,-287.33 1512.54,-277.83 1578.75,-277.25"/>
<path fill="none" stroke="#ffffff" stroke-width="2" d="M1434.75,-288.75C1497.85,-289.04 1513.58,-279.54 1578.75,-279.25"/>
<path fill="none" stroke="#ff8000" stroke-width="2" d="M1434.75,-290.75C1498.89,-290.75 1514.61,-281.25 1578.75,-281.25"/>
<path fill="none" stroke="#ffffff" stroke-width="2" d="M1434.75,-292.75C1499.92,-292.46 1515.65,-282.96 1578.75,-283.25"/>
<path fill="none" stroke="#000000" stroke-width="2" d="M1434.75,-294.75C1500.96,-294.17 1516.68,-284.67 1578.75,-285.25"/>
</g>
<!-- W2&#45;&#45;X3 -->
<g id="edge12" class="edge">
<title>W2:e&#45;&#45;X3:w</title>
<path fill="none" stroke="#000000" stroke-width="2" d="M1434.75,-257.75C1497.91,-257.84 1513.87,-254.34 1578.75,-254.25"/>
<path fill="none" stroke="#ff8000" stroke-width="2" d="M1434.75,-259.75C1498.34,-259.8 1514.3,-256.3 1578.75,-256.25"/>
<path fill="none" stroke="#ff8000" stroke-width="2" d="M1434.75,-261.75C1498.77,-261.75 1514.73,-258.25 1578.75,-258.25"/>
<path fill="none" stroke="#ff8000" stroke-width="2" d="M1434.75,-263.75C1499.2,-263.7 1515.16,-260.2 1578.75,-260.25"/>
<path fill="none" stroke="#000000" stroke-width="2" d="M1434.75,-265.75C1499.63,-265.66 1515.59,-262.16 1578.75,-262.25"/>
</g>
<!-- W2&#45;&#45;X3 -->
<g id="edge14" class="edge">
<title>W2:e&#45;&#45;X3:w</title>
<path fill="none" stroke="#000000" stroke-width="2" d="M1434.75,-228.75C1499.38,-228.8 1515.36,-231.3 1578.75,-231.25"/>
<path fill="none" stroke="#ffffff" stroke-width="2" d="M1434.75,-230.75C1499.07,-230.77 1515.05,-233.27 1578.75,-233.25"/>
<path fill="none" stroke="#00ff00" stroke-width="2" d="M1434.75,-232.75C1498.76,-232.75 1514.74,-235.25 1578.75,-235.25"/>
<path fill="none" stroke="#ffffff" stroke-width="2" d="M1434.75,-234.75C1498.45,-234.73 1514.43,-237.23 1578.75,-237.25"/>
<path fill="none" stroke="#000000" stroke-width="2" d="M1434.75,-236.75C1498.14,-236.7 1514.12,-239.2 1578.75,-239.25"/>
</g>
<!-- W2&#45;&#45;X3 -->
<g id="edge16" class="edge">
<title>W2:e&#45;&#45;X3:w</title>
<path fill="none" stroke="#000000" stroke-width="2" d="M1434.75,-199.75C1500.76,-200.23 1516.54,-208.73 1578.75,-208.25"/>
<path fill="none" stroke="#0066ff" stroke-width="2" d="M1434.75,-201.75C1499.81,-201.99 1515.59,-210.49 1578.75,-210.25"/>
<path fill="none" stroke="#0066ff" stroke-width="2" d="M1434.75,-203.75C1498.86,-203.75 1514.64,-212.25 1578.75,-212.25"/>
<path fill="none" stroke="#0066ff" stroke-width="2" d="M1434.75,-205.75C1497.91,-205.51 1513.69,-214.01 1578.75,-214.25"/>
<path fill="none" stroke="#000000" stroke-width="2" d="M1434.75,-207.75C1496.96,-207.27 1512.74,-215.77 1578.75,-216.25"/>
</g>
<!-- WAIR1&#45;&#45;Aviation&#45;Plug&#45;F&#45;4 -->
<g id="edge18" class="edge">
<title>WAIR1:e&#45;&#45;Aviation&#45;Plug&#45;F&#45;4:w</title>
<path fill="none" stroke="#000000" stroke-width="2" d="M713.75,-667.88C775.8,-668.46 791.52,-658.84 857.75,-658.25"/>
<path fill="none" stroke="#ffffff" stroke-width="2" d="M713.75,-669.88C776.85,-670.17 792.56,-660.54 857.75,-660.25"/>
<path fill="none" stroke="#ff8000" stroke-width="2" d="M713.75,-671.88C777.89,-671.87 793.61,-662.25 857.75,-662.25"/>
<path fill="none" stroke="#ffffff" stroke-width="2" d="M713.75,-673.87C778.94,-673.58 794.65,-663.96 857.75,-664.25"/>
<path fill="none" stroke="#000000" stroke-width="2" d="M713.75,-675.87C779.98,-675.29 795.7,-665.66 857.75,-666.25"/>
</g>
<!-- WAIR1&#45;&#45;Aviation&#45;Plug&#45;F&#45;4 -->
<g id="edge20" class="edge">
<title>WAIR1:e&#45;&#45;Aviation&#45;Plug&#45;F&#45;4:w</title>
<path fill="none" stroke="#000000" stroke-width="2" d="M713.75,-638.88C776.88,-638.97 792.84,-635.35 857.75,-635.25"/>
<path fill="none" stroke="#ff8000" stroke-width="2" d="M713.75,-640.88C777.33,-640.92 793.29,-637.3 857.75,-637.25"/>
<path fill="none" stroke="#ff8000" stroke-width="2" d="M713.75,-642.88C777.77,-642.88 793.73,-639.25 857.75,-639.25"/>
<path fill="none" stroke="#ff8000" stroke-width="2" d="M713.75,-644.87C778.21,-644.83 794.17,-641.2 857.75,-641.25"/>
<path fill="none" stroke="#000000" stroke-width="2" d="M713.75,-646.87C778.66,-646.78 794.62,-643.15 857.75,-643.25"/>
</g>
<!-- WAIR1&#45;&#45;Aviation&#45;Plug&#45;F&#45;4 -->
<g id="edge22" class="edge">
<title>WAIR1:e&#45;&#45;Aviation&#45;Plug&#45;F&#45;4:w</title>
<path fill="none" stroke="#000000" stroke-width="2" d="M713.75,-609.88C778.35,-609.92 794.33,-612.29 857.75,-612.25"/>
<path fill="none" stroke="#ffffff" stroke-width="2" d="M713.75,-611.88C778.05,-611.9 794.04,-614.27 857.75,-614.25"/>
<path fill="none" stroke="#00ff00" stroke-width="2" d="M713.75,-613.88C777.76,-613.87 793.74,-616.25 857.75,-616.25"/>
<path fill="none" stroke="#ffffff" stroke-width="2" d="M713.75,-615.87C777.46,-615.85 793.45,-618.23 857.75,-618.25"/>
<path fill="none" stroke="#000000" stroke-width="2" d="M713.75,-617.87C777.17,-617.83 793.15,-620.21 857.75,-620.25"/>
</g>
<!-- WAIR1&#45;&#45;Aviation&#45;Plug&#45;F&#45;4 -->
<g id="edge24" class="edge">
<title>WAIR1:e&#45;&#45;Aviation&#45;Plug&#45;F&#45;4:w</title>
<path fill="none" stroke="#000000" stroke-width="2" d="M713.75,-580.88C779.73,-581.34 795.52,-589.72 857.75,-589.25"/>
<path fill="none" stroke="#0066ff" stroke-width="2" d="M713.75,-582.88C778.8,-583.11 794.58,-591.48 857.75,-591.25"/>
<path fill="none" stroke="#0066ff" stroke-width="2" d="M713.75,-584.88C777.86,-584.88 793.64,-593.25 857.75,-593.25"/>
<path fill="none" stroke="#0066ff" stroke-width="2" d="M713.75,-586.87C776.92,-586.64 792.7,-595.02 857.75,-595.25"/>
<path fill="none" stroke="#000000" stroke-width="2" d="M713.75,-588.87C775.98,-588.41 791.77,-596.78 857.75,-597.25"/>
</g>
</g>
</svg>
