<?xml version="1.0" encoding="UTF-8" standalone="no"?>
<!DOCTYPE svg PUBLIC "-//W3C//DTD SVG 1.1//EN"
 "http://www.w3.org/Graphics/SVG/1.1/DTD/svg11.dtd">
<!-- Generated by graphviz version 12.1.1 (20240910.0053)
 -->
<!-- Pages: 1 -->
<svg width="2665pt" height="538pt"
 viewBox="0.00 0.00 2665.25 537.75" xmlns="http://www.w3.org/2000/svg" xmlns:xlink="http://www.w3.org/1999/xlink">
<g id="graph0" class="graph" transform="scale(1 1) rotate(0) translate(4 533.75)">
<polygon fill="#ffffff" stroke="none" points="-4,4 -4,-533.75 2661.25,-533.75 2661.25,4 -4,4"/>
<!-- C1&#45;Mesa -->
<g id="node1" class="node">
<title>C1&#45;Mesa</title>
<polygon fill="#ffffff" stroke="black" points="63.5,-353.88 0,-353.88 0,-116.38 63.5,-116.38 63.5,-353.88"/>
<polygon fill="none" stroke="black" points="0,-330.12 0,-353.88 63.5,-353.88 63.5,-330.12 0,-330.12"/>
<text text-anchor="start" x="4" y="-336.57" font-family="arial" font-size="14.00">C1&#45;Mesa</text>
<polygon fill="none" stroke="black" points="0,-306.38 0,-330.12 63.5,-330.12 63.5,-306.38 0,-306.38"/>
<text text-anchor="start" x="13" y="-312.82" font-family="arial" font-size="14.00">49&#45;pin</text>
<polygon fill="none" stroke="black" points="0,-282.62 0,-306.38 63.5,-306.38 63.5,-282.62 0,-282.62"/>
<text text-anchor="start" x="4" y="-289.07" font-family="arial" font-size="14.00">TB3.O0+</text>
<polygon fill="none" stroke="black" points="0,-258.88 0,-282.62 63.5,-282.62 63.5,-258.88 0,-258.88"/>
<text text-anchor="start" x="5.88" y="-265.32" font-family="arial" font-size="14.00">TB3.O0&#45;</text>
<polygon fill="none" stroke="black" points="0,-235.12 0,-258.88 63.5,-258.88 63.5,-235.12 0,-235.12"/>
<text text-anchor="start" x="4" y="-241.57" font-family="arial" font-size="14.00">TB3.O1+</text>
<polygon fill="none" stroke="black" points="0,-211.38 0,-235.12 63.5,-235.12 63.5,-211.38 0,-211.38"/>
<text text-anchor="start" x="5.88" y="-217.82" font-family="arial" font-size="14.00">TB3.O1&#45;</text>
<polygon fill="none" stroke="black" points="0,-187.62 0,-211.38 63.5,-211.38 63.5,-187.62 0,-187.62"/>
<text text-anchor="start" x="4" y="-194.07" font-family="arial" font-size="14.00">TB3.O2+</text>
<polygon fill="none" stroke="black" points="0,-163.88 0,-187.62 63.5,-187.62 63.5,-163.88 0,-163.88"/>
<text text-anchor="start" x="7.75" y="-170.32" font-family="arial" font-size="14.00">TB3.02&#45;</text>
<polygon fill="none" stroke="black" points="0,-140.12 0,-163.88 63.5,-163.88 63.5,-140.12 0,-140.12"/>
<text text-anchor="start" x="4" y="-146.57" font-family="arial" font-size="14.00">TB3.O3+</text>
<polygon fill="none" stroke="black" points="0,-116.38 0,-140.12 63.5,-140.12 63.5,-116.38 0,-116.38"/>
<text text-anchor="start" x="5.88" y="-122.83" font-family="arial" font-size="14.00">TB3.O3&#45;</text>
</g>
<!-- CAT6&#45;1 -->
<g id="node5" class="node">
<title>CAT6&#45;1</title>
<polygon fill="#ffffff" stroke="black" points="999.5,-529.75 645.5,-529.75 645.5,-148.5 999.5,-148.5 999.5,-529.75"/>
<polygon fill="none" stroke="black" points="645.5,-506 645.5,-529.75 999.5,-529.75 999.5,-506 645.5,-506"/>
<text text-anchor="start" x="799.62" y="-512.45" font-family="arial" font-size="14.00">CAT6&#45;1</text>
<polygon fill="none" stroke="black" points="645.5,-482.25 645.5,-506 754.5,-506 754.5,-482.25 645.5,-482.25"/>
<text text-anchor="start" x="692.88" y="-488.7" font-family="arial" font-size="14.00">8x</text>
<polygon fill="none" stroke="black" points="754.5,-482.25 754.5,-506 870.25,-506 870.25,-482.25 754.5,-482.25"/>
<text text-anchor="start" x="801.88" y="-488.7" font-family="arial" font-size="14.00">+ S</text>
<polygon fill="none" stroke="black" points="870.25,-482.25 870.25,-506 999.5,-506 999.5,-482.25 870.25,-482.25"/>
<text text-anchor="start" x="917.62" y="-488.7" font-family="arial" font-size="14.00">2.1 m</text>
<text text-anchor="start" x="702.62" y="-466.95" font-family="arial" font-size="14.00"> </text>
<text text-anchor="start" x="647.12" y="-447.95" font-family="arial" font-size="14.00">C1&#45;Mesa:TB3.O0+</text>
<text text-anchor="start" x="765.12" y="-447.95" font-family="arial" font-size="14.00"> &#160;&#160;&#160;&#160;1:WHOG &#160;&#160;&#160;</text>
<text text-anchor="start" x="859.5" y="-447.95" font-family="arial" font-size="14.00">Aviation&#45;Plug&#45;M&#45;6:1:L1</text>
<polygon fill="#000000" stroke="none" points="645.5,-442.25 645.5,-444.25 999.5,-444.25 999.5,-442.25 645.5,-442.25"/>
<polygon fill="#ffffff" stroke="none" points="645.5,-440.25 645.5,-442.25 999.5,-442.25 999.5,-440.25 645.5,-440.25"/>
<polygon fill="#ff8000" stroke="none" points="645.5,-438.25 645.5,-440.25 999.5,-440.25 999.5,-438.25 645.5,-438.25"/>
<polygon fill="#ffffff" stroke="none" points="645.5,-436.25 645.5,-438.25 999.5,-438.25 999.5,-436.25 645.5,-436.25"/>
<polygon fill="#000000" stroke="none" points="645.5,-434.25 645.5,-436.25 999.5,-436.25 999.5,-434.25 645.5,-434.25"/>
<text text-anchor="start" x="647.12" y="-418.95" font-family="arial" font-size="14.00">C1&#45;Mesa:TB3.O1+</text>
<text text-anchor="start" x="776.75" y="-418.95" font-family="arial" font-size="14.00"> &#160;&#160;&#160;&#160;2:OG &#160;&#160;&#160;</text>
<text text-anchor="start" x="859.5" y="-418.95" font-family="arial" font-size="14.00">Aviation&#45;Plug&#45;M&#45;6:2:L2</text>
<polygon fill="#000000" stroke="none" points="645.5,-413.25 645.5,-415.25 999.5,-415.25 999.5,-413.25 645.5,-413.25"/>
<polygon fill="#ff8000" stroke="none" points="645.5,-411.25 645.5,-413.25 999.5,-413.25 999.5,-411.25 645.5,-411.25"/>
<polygon fill="#ff8000" stroke="none" points="645.5,-409.25 645.5,-411.25 999.5,-411.25 999.5,-409.25 645.5,-409.25"/>
<polygon fill="#ff8000" stroke="none" points="645.5,-407.25 645.5,-409.25 999.5,-409.25 999.5,-407.25 645.5,-407.25"/>
<polygon fill="#000000" stroke="none" points="645.5,-405.25 645.5,-407.25 999.5,-407.25 999.5,-405.25 645.5,-405.25"/>
<text text-anchor="start" x="647.12" y="-389.95" font-family="arial" font-size="14.00">C1&#45;Mesa:TB3.O2+</text>
<text text-anchor="start" x="765.88" y="-389.95" font-family="arial" font-size="14.00"> &#160;&#160;&#160;&#160;3:WHGN &#160;&#160;&#160;</text>
<text text-anchor="start" x="859.5" y="-389.95" font-family="arial" font-size="14.00">Aviation&#45;Plug&#45;M&#45;6:3:L3</text>
<polygon fill="#000000" stroke="none" points="645.5,-384.25 645.5,-386.25 999.5,-386.25 999.5,-384.25 645.5,-384.25"/>
<polygon fill="#ffffff" stroke="none" points="645.5,-382.25 645.5,-384.25 999.5,-384.25 999.5,-382.25 645.5,-382.25"/>
<polygon fill="#00ff00" stroke="none" points="645.5,-380.25 645.5,-382.25 999.5,-382.25 999.5,-380.25 645.5,-380.25"/>
<polygon fill="#ffffff" stroke="none" points="645.5,-378.25 645.5,-380.25 999.5,-380.25 999.5,-378.25 645.5,-378.25"/>
<polygon fill="#000000" stroke="none" points="645.5,-376.25 645.5,-378.25 999.5,-378.25 999.5,-376.25 645.5,-376.25"/>
<text text-anchor="start" x="647.12" y="-360.95" font-family="arial" font-size="14.00">C1&#45;Mesa:TB3.O3+</text>
<text text-anchor="start" x="778.62" y="-360.95" font-family="arial" font-size="14.00"> &#160;&#160;&#160;&#160;4:BU &#160;&#160;&#160;</text>
<text text-anchor="start" x="859.5" y="-360.95" font-family="arial" font-size="14.00">Aviation&#45;Plug&#45;M&#45;6:4:L4</text>
<polygon fill="#000000" stroke="none" points="645.5,-355.25 645.5,-357.25 999.5,-357.25 999.5,-355.25 645.5,-355.25"/>
<polygon fill="#0066ff" stroke="none" points="645.5,-353.25 645.5,-355.25 999.5,-355.25 999.5,-353.25 645.5,-353.25"/>
<polygon fill="#0066ff" stroke="none" points="645.5,-351.25 645.5,-353.25 999.5,-353.25 999.5,-351.25 645.5,-351.25"/>
<polygon fill="#0066ff" stroke="none" points="645.5,-349.25 645.5,-351.25 999.5,-351.25 999.5,-349.25 645.5,-349.25"/>
<polygon fill="#000000" stroke="none" points="645.5,-347.25 645.5,-349.25 999.5,-349.25 999.5,-347.25 645.5,-347.25"/>
<text text-anchor="start" x="767" y="-331.95" font-family="arial" font-size="14.00"> &#160;&#160;&#160;&#160;5:WHBU &#160;&#160;&#160;</text>
<polygon fill="#000000" stroke="none" points="645.5,-326.25 645.5,-328.25 999.5,-328.25 999.5,-326.25 645.5,-326.25"/>
<polygon fill="#ffffff" stroke="none" points="645.5,-324.25 645.5,-326.25 999.5,-326.25 999.5,-324.25 645.5,-324.25"/>
<polygon fill="#0066ff" stroke="none" points="645.5,-322.25 645.5,-324.25 999.5,-324.25 999.5,-322.25 645.5,-322.25"/>
<polygon fill="#ffffff" stroke="none" points="645.5,-320.25 645.5,-322.25 999.5,-322.25 999.5,-320.25 645.5,-320.25"/>
<polygon fill="#000000" stroke="none" points="645.5,-318.25 645.5,-320.25 999.5,-320.25 999.5,-318.25 645.5,-318.25"/>
<text text-anchor="start" x="777.5" y="-302.95" font-family="arial" font-size="14.00"> &#160;&#160;&#160;&#160;6:GN &#160;&#160;&#160;</text>
<polygon fill="#000000" stroke="none" points="645.5,-297.25 645.5,-299.25 999.5,-299.25 999.5,-297.25 645.5,-297.25"/>
<polygon fill="#00ff00" stroke="none" points="645.5,-295.25 645.5,-297.25 999.5,-297.25 999.5,-295.25 645.5,-295.25"/>
<polygon fill="#00ff00" stroke="none" points="645.5,-293.25 645.5,-295.25 999.5,-295.25 999.5,-293.25 645.5,-293.25"/>
<polygon fill="#00ff00" stroke="none" points="645.5,-291.25 645.5,-293.25 999.5,-293.25 999.5,-291.25 645.5,-291.25"/>
<polygon fill="#000000" stroke="none" points="645.5,-289.25 645.5,-291.25 999.5,-291.25 999.5,-289.25 645.5,-289.25"/>
<text text-anchor="start" x="767" y="-273.95" font-family="arial" font-size="14.00"> &#160;&#160;&#160;&#160;7:WHBN &#160;&#160;&#160;</text>
<polygon fill="#000000" stroke="none" points="645.5,-268.25 645.5,-270.25 999.5,-270.25 999.5,-268.25 645.5,-268.25"/>
<polygon fill="#ffffff" stroke="none" points="645.5,-266.25 645.5,-268.25 999.5,-268.25 999.5,-266.25 645.5,-266.25"/>
<polygon fill="#895956" stroke="none" points="645.5,-264.25 645.5,-266.25 999.5,-266.25 999.5,-264.25 645.5,-264.25"/>
<polygon fill="#ffffff" stroke="none" points="645.5,-262.25 645.5,-264.25 999.5,-264.25 999.5,-262.25 645.5,-262.25"/>
<polygon fill="#000000" stroke="none" points="645.5,-260.25 645.5,-262.25 999.5,-262.25 999.5,-260.25 645.5,-260.25"/>
<text text-anchor="start" x="778.62" y="-244.95" font-family="arial" font-size="14.00"> &#160;&#160;&#160;&#160;8:BN &#160;&#160;&#160;</text>
<polygon fill="#000000" stroke="none" points="645.5,-239.25 645.5,-241.25 999.5,-241.25 999.5,-239.25 645.5,-239.25"/>
<polygon fill="#895956" stroke="none" points="645.5,-237.25 645.5,-239.25 999.5,-239.25 999.5,-237.25 645.5,-237.25"/>
<polygon fill="#895956" stroke="none" points="645.5,-235.25 645.5,-237.25 999.5,-237.25 999.5,-235.25 645.5,-235.25"/>
<polygon fill="#895956" stroke="none" points="645.5,-233.25 645.5,-235.25 999.5,-235.25 999.5,-233.25 645.5,-233.25"/>
<polygon fill="#000000" stroke="none" points="645.5,-231.25 645.5,-233.25 999.5,-233.25 999.5,-231.25 645.5,-231.25"/>
<text text-anchor="start" x="702.62" y="-215.95" font-family="arial" font-size="14.00"> </text>
<text text-anchor="start" x="791.75" y="-196.95" font-family="arial" font-size="14.00">Shield</text>
<polygon fill="#000000" stroke="none" points="645.5,-191.25 645.5,-193.25 999.5,-193.25 999.5,-191.25 645.5,-191.25"/>
<text text-anchor="start" x="702.62" y="-175.95" font-family="arial" font-size="14.00"> </text>
<polygon fill="none" stroke="black" points="645.5,-148.5 645.5,-172.25 999.5,-172.25 999.5,-148.5 645.5,-148.5"/>
<text text-anchor="start" x="694.62" y="-154.95" font-family="arial" font-size="14.00">This cable is from the MESA to the cabinet</text>
</g>
<!-- C1&#45;Mesa&#45;&#45;CAT6&#45;1 -->
<g id="edge1" class="edge">
<title>C1&#45;Mesa:e&#45;&#45;CAT6&#45;1:w</title>
<path fill="none" stroke="#000000" stroke-width="2" d="M63.5,-290.5C146.07,-294.93 137.86,-370.06 208.9,-393.38 389.07,-461.91 448.31,-435.59 645.5,-435.25"/>
<path fill="none" stroke="#ffffff" stroke-width="2" d="M63.5,-292.5C144.08,-294.72 135.87,-369.84 208.2,-395.25 389.89,-463.74 449.12,-437.42 645.5,-437.25"/>
<path fill="none" stroke="#ff8000" stroke-width="2" d="M63.5,-294.5C142.09,-294.5 133.88,-369.62 207.5,-397.13 390.7,-465.57 449.94,-439.25 645.5,-439.25"/>
<path fill="none" stroke="#ffffff" stroke-width="2" d="M63.5,-296.5C140.1,-294.28 131.89,-369.4 206.8,-399 391.51,-467.39 450.75,-441.08 645.5,-441.25"/>
<path fill="none" stroke="#000000" stroke-width="2" d="M63.5,-298.5C138.11,-294.07 129.9,-369.19 206.1,-400.87 392.32,-469.22 451.56,-442.91 645.5,-443.25"/>
</g>
<!-- C1&#45;Mesa&#45;&#45;CAT6&#45;1 -->
<g id="edge3" class="edge">
<title>C1&#45;Mesa:e&#45;&#45;CAT6&#45;1:w</title>
<path fill="none" stroke="#000000" stroke-width="2" d="M63.5,-243C141.85,-247 141.79,-306.27 208.89,-328.37 254.55,-345.38 596.77,-406.31 645.5,-406.25"/>
<path fill="none" stroke="#ff8000" stroke-width="2" d="M63.5,-245C139.85,-247 139.79,-306.27 208.2,-330.25 254.2,-347.35 596.42,-408.28 645.5,-408.25"/>
<path fill="none" stroke="#ff8000" stroke-width="2" d="M63.5,-247C137.85,-247 137.79,-306.27 207.5,-332.12 253.85,-349.32 596.07,-410.25 645.5,-410.25"/>
<path fill="none" stroke="#ff8000" stroke-width="2" d="M63.5,-249C135.85,-247 135.79,-306.27 206.8,-334 253.5,-351.29 595.71,-412.22 645.5,-412.25"/>
<path fill="none" stroke="#000000" stroke-width="2" d="M63.5,-251C133.85,-247 133.79,-306.27 206.11,-335.88 253.15,-353.26 595.36,-414.19 645.5,-414.25"/>
</g>
<!-- C1&#45;Mesa&#45;&#45;CAT6&#45;1 -->
<g id="edge5" class="edge">
<title>C1&#45;Mesa:e&#45;&#45;CAT6&#45;1:w</title>
<path fill="none" stroke="#000000" stroke-width="2" d="M63.5,-195.5C135.6,-198.28 146.19,-231.31 208.71,-249.31 335.9,-289.87 372.02,-286.4 502.68,-326.3 570.17,-348.76 581.35,-379.9 645.5,-377.25"/>
<path fill="none" stroke="#ffffff" stroke-width="2" d="M63.5,-197.5C133.7,-198.89 144.29,-231.92 208.1,-251.22 336.09,-291.87 372.21,-288.39 502.09,-328.21 568.29,-349.43 579.47,-380.57 645.5,-379.25"/>
<path fill="none" stroke="#00ff00" stroke-width="2" d="M63.5,-199.5C131.79,-199.5 142.39,-232.53 207.5,-253.12 336.29,-293.86 372.41,-290.38 501.5,-330.12 566.41,-350.11 577.59,-381.25 645.5,-381.25"/>
<path fill="none" stroke="#ffffff" stroke-width="2" d="M63.5,-201.5C129.89,-200.11 140.48,-233.14 206.9,-255.03 336.48,-295.85 372.6,-292.37 500.91,-332.04 564.53,-350.78 575.7,-381.93 645.5,-383.25"/>
<path fill="none" stroke="#000000" stroke-width="2" d="M63.5,-203.5C127.98,-200.72 138.58,-233.75 206.29,-256.94 336.67,-297.84 372.79,-294.36 500.32,-333.95 562.64,-351.46 573.82,-382.6 645.5,-385.25"/>
</g>
<!-- C1&#45;Mesa&#45;&#45;CAT6&#45;1 -->
<g id="edge7" class="edge">
<title>C1&#45;Mesa:e&#45;&#45;CAT6&#45;1:w</title>
<path fill="none" stroke="#000000" stroke-width="2" d="M63.5,-148C264.33,-148.2 320.28,-166.41 503.12,-247.47 576.98,-283.16 571.28,-352.58 645.5,-348.25"/>
<path fill="none" stroke="#0066ff" stroke-width="2" d="M63.5,-150C263.71,-150.1 319.67,-168.31 502.31,-249.3 574.98,-282.99 569.29,-352.41 645.5,-350.25"/>
<path fill="none" stroke="#0066ff" stroke-width="2" d="M63.5,-152C263.09,-152 319.05,-170.21 501.5,-251.12 572.99,-282.83 567.3,-352.25 645.5,-352.25"/>
<path fill="none" stroke="#0066ff" stroke-width="2" d="M63.5,-154C262.47,-153.9 318.43,-172.12 500.69,-252.95 571,-282.66 565.3,-352.09 645.5,-354.25"/>
<path fill="none" stroke="#000000" stroke-width="2" d="M63.5,-156C261.85,-155.8 317.81,-174.02 499.88,-254.78 569,-282.5 563.31,-351.92 645.5,-356.25"/>
</g>
<!-- WAIR2 -->
<g id="node6" class="node">
<title>WAIR2</title>
<polygon fill="#ffffff" stroke="black" points="501.5,-138.25 207.5,-138.25 207.5,0 501.5,0 501.5,-138.25"/>
<polygon fill="none" stroke="black" points="207.5,-114.5 207.5,-138.25 501.5,-138.25 501.5,-114.5 207.5,-114.5"/>
<text text-anchor="start" x="333.12" y="-120.95" font-family="arial" font-size="14.00">WAIR2</text>
<polygon fill="none" stroke="black" points="207.5,-90.75 207.5,-114.5 501.5,-114.5 501.5,-90.75 207.5,-90.75"/>
<text text-anchor="start" x="347.38" y="-97.2" font-family="arial" font-size="14.00">1x</text>
<text text-anchor="start" x="263.12" y="-75.45" font-family="arial" font-size="14.00"> </text>
<text text-anchor="start" x="209.5" y="-56.45" font-family="arial" font-size="14.00">C1&#45;Mesa:TB3.O0&#45;</text>
<text text-anchor="start" x="324.5" y="-56.45" font-family="arial" font-size="14.00"> &#160;&#160;&#160;&#160;1:BK &#160;&#160;&#160;</text>
<text text-anchor="start" x="391.5" y="-56.45" font-family="arial" font-size="14.00">Power12V:2:GND</text>
<polygon fill="#000000" stroke="none" points="207.5,-50.75 207.5,-52.75 501.5,-52.75 501.5,-50.75 207.5,-50.75"/>
<polygon fill="#000000" stroke="none" points="207.5,-48.75 207.5,-50.75 501.5,-50.75 501.5,-48.75 207.5,-48.75"/>
<polygon fill="#000000" stroke="none" points="207.5,-46.75 207.5,-48.75 501.5,-48.75 501.5,-46.75 207.5,-46.75"/>
<polygon fill="#000000" stroke="none" points="207.5,-44.75 207.5,-46.75 501.5,-46.75 501.5,-44.75 207.5,-44.75"/>
<polygon fill="#000000" stroke="none" points="207.5,-42.75 207.5,-44.75 501.5,-44.75 501.5,-42.75 207.5,-42.75"/>
<text text-anchor="start" x="263.12" y="-27.45" font-family="arial" font-size="14.00"> </text>
<polygon fill="none" stroke="black" points="207.5,0 207.5,-23.75 501.5,-23.75 501.5,0 207.5,0"/>
<text text-anchor="start" x="215.38" y="-6.45" font-family="arial" font-size="14.00">This Cable is from the cabinet to the AIR vents</text>
</g>
<!-- C1&#45;Mesa&#45;&#45;WAIR2 -->
<g id="edge9" class="edge">
<title>C1&#45;Mesa:e&#45;&#45;WAIR2:w</title>
<path fill="none" stroke="#000000" stroke-width="2" d="M63.5,-266.75C177.78,-272.27 85.82,-49.27 207.5,-43.75"/>
<path fill="none" stroke="#000000" stroke-width="2" d="M63.5,-268.75C179.63,-271.51 87.67,-48.51 207.5,-45.75"/>
<path fill="none" stroke="#000000" stroke-width="2" d="M63.5,-270.75C181.48,-270.75 89.52,-47.75 207.5,-47.75"/>
<path fill="none" stroke="#000000" stroke-width="2" d="M63.5,-272.75C183.33,-269.99 91.37,-46.99 207.5,-49.75"/>
<path fill="none" stroke="#000000" stroke-width="2" d="M63.5,-274.75C185.18,-269.23 93.22,-46.23 207.5,-51.75"/>
</g>
<!-- C1&#45;Mesa&#45;&#45;WAIR2 -->
<g id="edge11" class="edge">
<title>C1&#45;Mesa:e&#45;&#45;WAIR2:w</title>
<path fill="none" stroke="#000000" stroke-width="2" d="M63.5,-219.25C160.6,-224.5 102.8,-49 207.5,-43.75"/>
<path fill="none" stroke="#000000" stroke-width="2" d="M63.5,-221.25C162.5,-223.88 104.7,-48.38 207.5,-45.75"/>
<path fill="none" stroke="#000000" stroke-width="2" d="M63.5,-223.25C164.4,-223.25 106.6,-47.75 207.5,-47.75"/>
<path fill="none" stroke="#000000" stroke-width="2" d="M63.5,-225.25C166.3,-222.62 108.5,-47.12 207.5,-49.75"/>
<path fill="none" stroke="#000000" stroke-width="2" d="M63.5,-227.25C168.2,-222 110.4,-46.5 207.5,-51.75"/>
</g>
<!-- C1&#45;Mesa&#45;&#45;WAIR2 -->
<g id="edge13" class="edge">
<title>C1&#45;Mesa:e&#45;&#45;WAIR2:w</title>
<path fill="none" stroke="#000000" stroke-width="2" d="M63.5,-171.75C145.22,-176.58 117.96,-48.58 207.5,-43.75"/>
<path fill="none" stroke="#000000" stroke-width="2" d="M63.5,-173.75C147.17,-176.17 119.91,-48.17 207.5,-45.75"/>
<path fill="none" stroke="#000000" stroke-width="2" d="M63.5,-175.75C149.13,-175.75 121.87,-47.75 207.5,-47.75"/>
<path fill="none" stroke="#000000" stroke-width="2" d="M63.5,-177.75C151.09,-175.33 123.83,-47.33 207.5,-49.75"/>
<path fill="none" stroke="#000000" stroke-width="2" d="M63.5,-179.75C153.04,-174.92 125.78,-46.92 207.5,-51.75"/>
</g>
<!-- C1&#45;Mesa&#45;&#45;WAIR2 -->
<g id="edge15" class="edge">
<title>C1&#45;Mesa:e&#45;&#45;WAIR2:w</title>
<path fill="none" stroke="#000000" stroke-width="2" d="M63.5,-124.25C132.82,-128.38 130.18,-47.88 207.5,-43.75"/>
<path fill="none" stroke="#000000" stroke-width="2" d="M63.5,-126.25C134.82,-128.32 132.18,-47.82 207.5,-45.75"/>
<path fill="none" stroke="#000000" stroke-width="2" d="M63.5,-128.25C136.82,-128.25 134.18,-47.75 207.5,-47.75"/>
<path fill="none" stroke="#000000" stroke-width="2" d="M63.5,-130.25C138.82,-128.18 136.18,-47.68 207.5,-49.75"/>
<path fill="none" stroke="#000000" stroke-width="2" d="M63.5,-132.25C140.82,-128.12 138.18,-47.62 207.5,-51.75"/>
</g>
<!-- Aviation&#45;Plug&#45;M&#45;6 -->
<g id="node2" class="node">
<title>Aviation&#45;Plug&#45;M&#45;6</title>
<polygon fill="#ffffff" stroke="black" points="1791.25,-464.75 1595.5,-464.75 1595.5,-255.5 1791.25,-255.5 1791.25,-464.75"/>
<polygon fill="none" stroke="black" points="1595.5,-441 1595.5,-464.75 1791.25,-464.75 1791.25,-441 1595.5,-441"/>
<text text-anchor="start" x="1639.38" y="-447.45" font-family="arial" font-size="14.00">Aviation&#45;Plug&#45;M&#45;6</text>
<polygon fill="none" stroke="black" points="1595.5,-417.25 1595.5,-441 1715.25,-441 1715.25,-417.25 1595.5,-417.25"/>
<text text-anchor="start" x="1599.5" y="-423.7" font-family="arial" font-size="14.00">Aviation Plug 6 pin</text>
<polygon fill="none" stroke="black" points="1715.25,-417.25 1715.25,-441 1753.25,-441 1753.25,-417.25 1715.25,-417.25"/>
<text text-anchor="start" x="1719.25" y="-423.7" font-family="arial" font-size="14.00">male</text>
<polygon fill="none" stroke="black" points="1753.25,-417.25 1753.25,-441 1791.25,-441 1791.25,-417.25 1753.25,-417.25"/>
<text text-anchor="start" x="1757.25" y="-423.7" font-family="arial" font-size="14.00">6&#45;pin</text>
<polygon fill="none" stroke="black" points="1595.5,-394.25 1595.5,-417.25 1658.08,-417.25 1658.08,-394.25 1595.5,-394.25"/>
<text text-anchor="start" x="1623.04" y="-399.95" font-family="arial" font-size="14.00">1</text>
<polygon fill="none" stroke="black" points="1658.08,-394.25 1658.08,-417.25 1728.67,-417.25 1728.67,-394.25 1658.08,-394.25"/>
<text text-anchor="start" x="1685.88" y="-399.95" font-family="arial" font-size="14.00">L1</text>
<polygon fill="none" stroke="black" points="1728.67,-394.25 1728.67,-417.25 1791.25,-417.25 1791.25,-394.25 1728.67,-394.25"/>
<text text-anchor="start" x="1756.21" y="-399.95" font-family="arial" font-size="14.00">1</text>
<polygon fill="none" stroke="black" points="1595.5,-371.25 1595.5,-394.25 1658.08,-394.25 1658.08,-371.25 1595.5,-371.25"/>
<text text-anchor="start" x="1623.04" y="-376.95" font-family="arial" font-size="14.00">2</text>
<polygon fill="none" stroke="black" points="1658.08,-371.25 1658.08,-394.25 1728.67,-394.25 1728.67,-371.25 1658.08,-371.25"/>
<text text-anchor="start" x="1685.88" y="-376.95" font-family="arial" font-size="14.00">L2</text>
<polygon fill="none" stroke="black" points="1728.67,-371.25 1728.67,-394.25 1791.25,-394.25 1791.25,-371.25 1728.67,-371.25"/>
<text text-anchor="start" x="1756.21" y="-376.95" font-family="arial" font-size="14.00">2</text>
<polygon fill="none" stroke="black" points="1595.5,-348.25 1595.5,-371.25 1658.08,-371.25 1658.08,-348.25 1595.5,-348.25"/>
<text text-anchor="start" x="1623.04" y="-353.95" font-family="arial" font-size="14.00">3</text>
<polygon fill="none" stroke="black" points="1658.08,-348.25 1658.08,-371.25 1728.67,-371.25 1728.67,-348.25 1658.08,-348.25"/>
<text text-anchor="start" x="1685.88" y="-353.95" font-family="arial" font-size="14.00">L3</text>
<polygon fill="none" stroke="black" points="1728.67,-348.25 1728.67,-371.25 1791.25,-371.25 1791.25,-348.25 1728.67,-348.25"/>
<text text-anchor="start" x="1756.21" y="-353.95" font-family="arial" font-size="14.00">3</text>
<polygon fill="none" stroke="black" points="1595.5,-325.25 1595.5,-348.25 1658.08,-348.25 1658.08,-325.25 1595.5,-325.25"/>
<text text-anchor="start" x="1623.04" y="-330.95" font-family="arial" font-size="14.00">4</text>
<polygon fill="none" stroke="black" points="1658.08,-325.25 1658.08,-348.25 1728.67,-348.25 1728.67,-325.25 1658.08,-325.25"/>
<text text-anchor="start" x="1685.88" y="-330.95" font-family="arial" font-size="14.00">L4</text>
<polygon fill="none" stroke="black" points="1728.67,-325.25 1728.67,-348.25 1791.25,-348.25 1791.25,-325.25 1728.67,-325.25"/>
<text text-anchor="start" x="1756.21" y="-330.95" font-family="arial" font-size="14.00">4</text>
<polygon fill="none" stroke="black" points="1595.5,-302.25 1595.5,-325.25 1658.08,-325.25 1658.08,-302.25 1595.5,-302.25"/>
<text text-anchor="start" x="1623.04" y="-307.95" font-family="arial" font-size="14.00">5</text>
<polygon fill="none" stroke="black" points="1658.08,-302.25 1658.08,-325.25 1728.67,-325.25 1728.67,-302.25 1658.08,-302.25"/>
<text text-anchor="start" x="1685.88" y="-307.95" font-family="arial" font-size="14.00">L5</text>
<polygon fill="none" stroke="black" points="1728.67,-302.25 1728.67,-325.25 1791.25,-325.25 1791.25,-302.25 1728.67,-302.25"/>
<text text-anchor="start" x="1756.21" y="-307.95" font-family="arial" font-size="14.00">5</text>
<polygon fill="none" stroke="black" points="1595.5,-279.25 1595.5,-302.25 1658.08,-302.25 1658.08,-279.25 1595.5,-279.25"/>
<text text-anchor="start" x="1623.04" y="-284.95" font-family="arial" font-size="14.00">6</text>
<polygon fill="none" stroke="black" points="1658.08,-279.25 1658.08,-302.25 1728.67,-302.25 1728.67,-279.25 1658.08,-279.25"/>
<text text-anchor="start" x="1685.88" y="-284.95" font-family="arial" font-size="14.00">L6</text>
<polygon fill="none" stroke="black" points="1728.67,-279.25 1728.67,-302.25 1791.25,-302.25 1791.25,-279.25 1728.67,-279.25"/>
<text text-anchor="start" x="1756.21" y="-284.95" font-family="arial" font-size="14.00">6</text>
<polygon fill="none" stroke="black" points="1595.5,-255.5 1595.5,-279.25 1791.25,-279.25 1791.25,-255.5 1595.5,-255.5"/>
<text text-anchor="start" x="1607.12" y="-261.95" font-family="arial" font-size="14.00">Male plug Aviation plug 2 pin</text>
</g>
<!-- CAT6&#45;4 -->
<g id="node8" class="node">
<title>CAT6&#45;4</title>
<polygon fill="#ffffff" stroke="black" points="2267.25,-505.75 1935.25,-505.75 1935.25,-124.5 2267.25,-124.5 2267.25,-505.75"/>
<polygon fill="none" stroke="black" points="1935.25,-482 1935.25,-505.75 2267.25,-505.75 2267.25,-482 1935.25,-482"/>
<text text-anchor="start" x="2078.38" y="-488.45" font-family="arial" font-size="14.00">CAT6&#45;4</text>
<polygon fill="none" stroke="black" points="1935.25,-458.25 1935.25,-482 2036.92,-482 2036.92,-458.25 1935.25,-458.25"/>
<text text-anchor="start" x="1978.96" y="-464.7" font-family="arial" font-size="14.00">8x</text>
<polygon fill="none" stroke="black" points="2036.92,-458.25 2036.92,-482 2145.33,-482 2145.33,-458.25 2036.92,-458.25"/>
<text text-anchor="start" x="2080.62" y="-464.7" font-family="arial" font-size="14.00">+ S</text>
<polygon fill="none" stroke="black" points="2145.33,-458.25 2145.33,-482 2267.25,-482 2267.25,-458.25 2145.33,-458.25"/>
<text text-anchor="start" x="2189.04" y="-464.7" font-family="arial" font-size="14.00">2.1 m</text>
<text text-anchor="start" x="2004.38" y="-442.95" font-family="arial" font-size="14.00"> </text>
<text text-anchor="start" x="1937.25" y="-423.95" font-family="arial" font-size="14.00">Aviation&#45;Plug&#45;M&#45;6:1:L1</text>
<text text-anchor="start" x="2078.88" y="-423.95" font-family="arial" font-size="14.00"> &#160;&#160;&#160;&#160;1:WHOG &#160;&#160;&#160;</text>
<text text-anchor="start" x="2173.12" y="-423.95" font-family="arial" font-size="14.00">AirValves:2:A1&#45;</text>
<polygon fill="#000000" stroke="none" points="1935.25,-418.25 1935.25,-420.25 2267.25,-420.25 2267.25,-418.25 1935.25,-418.25"/>
<polygon fill="#ffffff" stroke="none" points="1935.25,-416.25 1935.25,-418.25 2267.25,-418.25 2267.25,-416.25 1935.25,-416.25"/>
<polygon fill="#ff8000" stroke="none" points="1935.25,-414.25 1935.25,-416.25 2267.25,-416.25 2267.25,-414.25 1935.25,-414.25"/>
<polygon fill="#ffffff" stroke="none" points="1935.25,-412.25 1935.25,-414.25 2267.25,-414.25 2267.25,-412.25 1935.25,-412.25"/>
<polygon fill="#000000" stroke="none" points="1935.25,-410.25 1935.25,-412.25 2267.25,-412.25 2267.25,-410.25 1935.25,-410.25"/>
<text text-anchor="start" x="1937.25" y="-394.95" font-family="arial" font-size="14.00">Aviation&#45;Plug&#45;M&#45;6:2:L2</text>
<text text-anchor="start" x="2090.5" y="-394.95" font-family="arial" font-size="14.00"> &#160;&#160;&#160;&#160;2:OG &#160;&#160;&#160;</text>
<text text-anchor="start" x="2173.12" y="-394.95" font-family="arial" font-size="14.00">AirValves:4:A2&#45;</text>
<polygon fill="#000000" stroke="none" points="1935.25,-389.25 1935.25,-391.25 2267.25,-391.25 2267.25,-389.25 1935.25,-389.25"/>
<polygon fill="#ff8000" stroke="none" points="1935.25,-387.25 1935.25,-389.25 2267.25,-389.25 2267.25,-387.25 1935.25,-387.25"/>
<polygon fill="#ff8000" stroke="none" points="1935.25,-385.25 1935.25,-387.25 2267.25,-387.25 2267.25,-385.25 1935.25,-385.25"/>
<polygon fill="#ff8000" stroke="none" points="1935.25,-383.25 1935.25,-385.25 2267.25,-385.25 2267.25,-383.25 1935.25,-383.25"/>
<polygon fill="#000000" stroke="none" points="1935.25,-381.25 1935.25,-383.25 2267.25,-383.25 2267.25,-381.25 1935.25,-381.25"/>
<text text-anchor="start" x="1937.25" y="-365.95" font-family="arial" font-size="14.00">Aviation&#45;Plug&#45;M&#45;6:3:L3</text>
<text text-anchor="start" x="2079.62" y="-365.95" font-family="arial" font-size="14.00"> &#160;&#160;&#160;&#160;3:WHGN &#160;&#160;&#160;</text>
<text text-anchor="start" x="2173.12" y="-365.95" font-family="arial" font-size="14.00">AirValves:6:A3&#45;</text>
<polygon fill="#000000" stroke="none" points="1935.25,-360.25 1935.25,-362.25 2267.25,-362.25 2267.25,-360.25 1935.25,-360.25"/>
<polygon fill="#ffffff" stroke="none" points="1935.25,-358.25 1935.25,-360.25 2267.25,-360.25 2267.25,-358.25 1935.25,-358.25"/>
<polygon fill="#00ff00" stroke="none" points="1935.25,-356.25 1935.25,-358.25 2267.25,-358.25 2267.25,-356.25 1935.25,-356.25"/>
<polygon fill="#ffffff" stroke="none" points="1935.25,-354.25 1935.25,-356.25 2267.25,-356.25 2267.25,-354.25 1935.25,-354.25"/>
<polygon fill="#000000" stroke="none" points="1935.25,-352.25 1935.25,-354.25 2267.25,-354.25 2267.25,-352.25 1935.25,-352.25"/>
<text text-anchor="start" x="1937.25" y="-336.95" font-family="arial" font-size="14.00">Aviation&#45;Plug&#45;M&#45;6:4:L4</text>
<text text-anchor="start" x="2092.38" y="-336.95" font-family="arial" font-size="14.00"> &#160;&#160;&#160;&#160;4:BU &#160;&#160;&#160;</text>
<text text-anchor="start" x="2173.12" y="-336.95" font-family="arial" font-size="14.00">AirValves:8:A4&#45;</text>
<polygon fill="#000000" stroke="none" points="1935.25,-331.25 1935.25,-333.25 2267.25,-333.25 2267.25,-331.25 1935.25,-331.25"/>
<polygon fill="#0066ff" stroke="none" points="1935.25,-329.25 1935.25,-331.25 2267.25,-331.25 2267.25,-329.25 1935.25,-329.25"/>
<polygon fill="#0066ff" stroke="none" points="1935.25,-327.25 1935.25,-329.25 2267.25,-329.25 2267.25,-327.25 1935.25,-327.25"/>
<polygon fill="#0066ff" stroke="none" points="1935.25,-325.25 1935.25,-327.25 2267.25,-327.25 2267.25,-325.25 1935.25,-325.25"/>
<polygon fill="#000000" stroke="none" points="1935.25,-323.25 1935.25,-325.25 2267.25,-325.25 2267.25,-323.25 1935.25,-323.25"/>
<text text-anchor="start" x="2080.75" y="-307.95" font-family="arial" font-size="14.00"> &#160;&#160;&#160;&#160;5:WHBU &#160;&#160;&#160;</text>
<polygon fill="#000000" stroke="none" points="1935.25,-302.25 1935.25,-304.25 2267.25,-304.25 2267.25,-302.25 1935.25,-302.25"/>
<polygon fill="#ffffff" stroke="none" points="1935.25,-300.25 1935.25,-302.25 2267.25,-302.25 2267.25,-300.25 1935.25,-300.25"/>
<polygon fill="#0066ff" stroke="none" points="1935.25,-298.25 1935.25,-300.25 2267.25,-300.25 2267.25,-298.25 1935.25,-298.25"/>
<polygon fill="#ffffff" stroke="none" points="1935.25,-296.25 1935.25,-298.25 2267.25,-298.25 2267.25,-296.25 1935.25,-296.25"/>
<polygon fill="#000000" stroke="none" points="1935.25,-294.25 1935.25,-296.25 2267.25,-296.25 2267.25,-294.25 1935.25,-294.25"/>
<text text-anchor="start" x="2091.25" y="-278.95" font-family="arial" font-size="14.00"> &#160;&#160;&#160;&#160;6:GN &#160;&#160;&#160;</text>
<polygon fill="#000000" stroke="none" points="1935.25,-273.25 1935.25,-275.25 2267.25,-275.25 2267.25,-273.25 1935.25,-273.25"/>
<polygon fill="#00ff00" stroke="none" points="1935.25,-271.25 1935.25,-273.25 2267.25,-273.25 2267.25,-271.25 1935.25,-271.25"/>
<polygon fill="#00ff00" stroke="none" points="1935.25,-269.25 1935.25,-271.25 2267.25,-271.25 2267.25,-269.25 1935.25,-269.25"/>
<polygon fill="#00ff00" stroke="none" points="1935.25,-267.25 1935.25,-269.25 2267.25,-269.25 2267.25,-267.25 1935.25,-267.25"/>
<polygon fill="#000000" stroke="none" points="1935.25,-265.25 1935.25,-267.25 2267.25,-267.25 2267.25,-265.25 1935.25,-265.25"/>
<text text-anchor="start" x="2080.75" y="-249.95" font-family="arial" font-size="14.00"> &#160;&#160;&#160;&#160;7:WHBN &#160;&#160;&#160;</text>
<polygon fill="#000000" stroke="none" points="1935.25,-244.25 1935.25,-246.25 2267.25,-246.25 2267.25,-244.25 1935.25,-244.25"/>
<polygon fill="#ffffff" stroke="none" points="1935.25,-242.25 1935.25,-244.25 2267.25,-244.25 2267.25,-242.25 1935.25,-242.25"/>
<polygon fill="#895956" stroke="none" points="1935.25,-240.25 1935.25,-242.25 2267.25,-242.25 2267.25,-240.25 1935.25,-240.25"/>
<polygon fill="#ffffff" stroke="none" points="1935.25,-238.25 1935.25,-240.25 2267.25,-240.25 2267.25,-238.25 1935.25,-238.25"/>
<polygon fill="#000000" stroke="none" points="1935.25,-236.25 1935.25,-238.25 2267.25,-238.25 2267.25,-236.25 1935.25,-236.25"/>
<text text-anchor="start" x="2092.38" y="-220.95" font-family="arial" font-size="14.00"> &#160;&#160;&#160;&#160;8:BN &#160;&#160;&#160;</text>
<polygon fill="#000000" stroke="none" points="1935.25,-215.25 1935.25,-217.25 2267.25,-217.25 2267.25,-215.25 1935.25,-215.25"/>
<polygon fill="#895956" stroke="none" points="1935.25,-213.25 1935.25,-215.25 2267.25,-215.25 2267.25,-213.25 1935.25,-213.25"/>
<polygon fill="#895956" stroke="none" points="1935.25,-211.25 1935.25,-213.25 2267.25,-213.25 2267.25,-211.25 1935.25,-211.25"/>
<polygon fill="#895956" stroke="none" points="1935.25,-209.25 1935.25,-211.25 2267.25,-211.25 2267.25,-209.25 1935.25,-209.25"/>
<polygon fill="#000000" stroke="none" points="1935.25,-207.25 1935.25,-209.25 2267.25,-209.25 2267.25,-207.25 1935.25,-207.25"/>
<text text-anchor="start" x="2004.38" y="-191.95" font-family="arial" font-size="14.00"> </text>
<text text-anchor="start" x="2105.5" y="-172.95" font-family="arial" font-size="14.00">Shield</text>
<polygon fill="#000000" stroke="none" points="1935.25,-167.25 1935.25,-169.25 2267.25,-169.25 2267.25,-167.25 1935.25,-167.25"/>
<text text-anchor="start" x="2004.38" y="-151.95" font-family="arial" font-size="14.00"> </text>
<polygon fill="none" stroke="black" points="1935.25,-124.5 1935.25,-148.25 2267.25,-148.25 2267.25,-124.5 1935.25,-124.5"/>
<text text-anchor="start" x="1962.12" y="-130.95" font-family="arial" font-size="14.00">This Cable is from the cabinet to the AIR vents</text>
</g>
<!-- Aviation&#45;Plug&#45;M&#45;6&#45;&#45;CAT6&#45;4 -->
<g id="edge19" class="edge">
<title>Aviation&#45;Plug&#45;M&#45;6:e&#45;&#45;CAT6&#45;4:w</title>
<path fill="none" stroke="#000000" stroke-width="2" d="M1791.25,-401.75C1857.46,-402.33 1873.18,-411.83 1935.25,-411.25"/>
<path fill="none" stroke="#ffffff" stroke-width="2" d="M1791.25,-403.75C1856.42,-404.04 1872.15,-413.54 1935.25,-413.25"/>
<path fill="none" stroke="#ff8000" stroke-width="2" d="M1791.25,-405.75C1855.39,-405.75 1871.11,-415.25 1935.25,-415.25"/>
<path fill="none" stroke="#ffffff" stroke-width="2" d="M1791.25,-407.75C1854.35,-407.46 1870.08,-416.96 1935.25,-417.25"/>
<path fill="none" stroke="#000000" stroke-width="2" d="M1791.25,-409.75C1853.32,-409.17 1869.04,-418.67 1935.25,-419.25"/>
</g>
<!-- Aviation&#45;Plug&#45;M&#45;6&#45;&#45;CAT6&#45;4 -->
<g id="edge21" class="edge">
<title>Aviation&#45;Plug&#45;M&#45;6:e&#45;&#45;CAT6&#45;4:w</title>
<path fill="none" stroke="#000000" stroke-width="2" d="M1791.25,-378.75C1856.13,-378.84 1872.09,-382.34 1935.25,-382.25"/>
<path fill="none" stroke="#ff8000" stroke-width="2" d="M1791.25,-380.75C1855.7,-380.8 1871.66,-384.3 1935.25,-384.25"/>
<path fill="none" stroke="#ff8000" stroke-width="2" d="M1791.25,-382.75C1855.27,-382.75 1871.23,-386.25 1935.25,-386.25"/>
<path fill="none" stroke="#ff8000" stroke-width="2" d="M1791.25,-384.75C1854.84,-384.7 1870.8,-388.2 1935.25,-388.25"/>
<path fill="none" stroke="#000000" stroke-width="2" d="M1791.25,-386.75C1854.41,-386.66 1870.37,-390.16 1935.25,-390.25"/>
</g>
<!-- Aviation&#45;Plug&#45;M&#45;6&#45;&#45;CAT6&#45;4 -->
<g id="edge23" class="edge">
<title>Aviation&#45;Plug&#45;M&#45;6:e&#45;&#45;CAT6&#45;4:w</title>
<path fill="none" stroke="#000000" stroke-width="2" d="M1791.25,-355.75C1854.64,-355.8 1870.62,-353.3 1935.25,-353.25"/>
<path fill="none" stroke="#ffffff" stroke-width="2" d="M1791.25,-357.75C1854.95,-357.77 1870.93,-355.27 1935.25,-355.25"/>
<path fill="none" stroke="#00ff00" stroke-width="2" d="M1791.25,-359.75C1855.26,-359.75 1871.24,-357.25 1935.25,-357.25"/>
<path fill="none" stroke="#ffffff" stroke-width="2" d="M1791.25,-361.75C1855.57,-361.73 1871.55,-359.23 1935.25,-359.25"/>
<path fill="none" stroke="#000000" stroke-width="2" d="M1791.25,-363.75C1855.88,-363.7 1871.86,-361.2 1935.25,-361.25"/>
</g>
<!-- Aviation&#45;Plug&#45;M&#45;6&#45;&#45;CAT6&#45;4 -->
<g id="edge25" class="edge">
<title>Aviation&#45;Plug&#45;M&#45;6:e&#45;&#45;CAT6&#45;4:w</title>
<path fill="none" stroke="#000000" stroke-width="2" d="M1791.25,-332.75C1853.46,-333.23 1869.24,-324.73 1935.25,-324.25"/>
<path fill="none" stroke="#0066ff" stroke-width="2" d="M1791.25,-334.75C1854.41,-334.99 1870.19,-326.49 1935.25,-326.25"/>
<path fill="none" stroke="#0066ff" stroke-width="2" d="M1791.25,-336.75C1855.36,-336.75 1871.14,-328.25 1935.25,-328.25"/>
<path fill="none" stroke="#0066ff" stroke-width="2" d="M1791.25,-338.75C1856.31,-338.51 1872.09,-330.01 1935.25,-330.25"/>
<path fill="none" stroke="#000000" stroke-width="2" d="M1791.25,-340.75C1857.26,-340.27 1873.04,-331.77 1935.25,-332.25"/>
</g>
<!-- Power12V -->
<g id="node3" class="node">
<title>Power12V</title>
<polygon fill="#ffffff" stroke="black" points="875.12,-124.88 769.88,-124.88 769.88,-31.38 875.12,-31.38 875.12,-124.88"/>
<polygon fill="none" stroke="black" points="769.88,-101.12 769.88,-124.88 875.12,-124.88 875.12,-101.12 769.88,-101.12"/>
<text text-anchor="start" x="791.38" y="-107.58" font-family="arial" font-size="14.00">Power12V</text>
<polygon fill="none" stroke="black" points="769.88,-77.38 769.88,-101.12 837.12,-101.12 837.12,-77.38 769.88,-77.38"/>
<text text-anchor="start" x="773.88" y="-83.83" font-family="arial" font-size="14.00">PWS 12V</text>
<polygon fill="none" stroke="black" points="837.12,-77.38 837.12,-101.12 875.12,-101.12 875.12,-77.38 837.12,-77.38"/>
<text text-anchor="start" x="841.12" y="-83.83" font-family="arial" font-size="14.00">2&#45;pin</text>
<polygon fill="none" stroke="black" points="769.88,-54.38 769.88,-77.38 797.29,-77.38 797.29,-54.38 769.88,-54.38"/>
<text text-anchor="start" x="779.83" y="-60.08" font-family="arial" font-size="14.00">1</text>
<polygon fill="none" stroke="black" points="797.29,-54.38 797.29,-77.38 847.71,-77.38 847.71,-54.38 797.29,-54.38"/>
<text text-anchor="start" x="813.88" y="-60.08" font-family="arial" font-size="14.00">V+</text>
<polygon fill="none" stroke="black" points="847.71,-54.38 847.71,-77.38 875.12,-77.38 875.12,-54.38 847.71,-54.38"/>
<text text-anchor="start" x="857.67" y="-60.08" font-family="arial" font-size="14.00">1</text>
<polygon fill="none" stroke="black" points="769.88,-31.38 769.88,-54.38 797.29,-54.38 797.29,-31.38 769.88,-31.38"/>
<text text-anchor="start" x="779.83" y="-37.08" font-family="arial" font-size="14.00">2</text>
<polygon fill="none" stroke="black" points="797.29,-31.38 797.29,-54.38 847.71,-54.38 847.71,-31.38 797.29,-31.38"/>
<text text-anchor="start" x="807.12" y="-37.08" font-family="arial" font-size="14.00">GND</text>
<polygon fill="none" stroke="black" points="847.71,-31.38 847.71,-54.38 875.12,-54.38 875.12,-31.38 847.71,-31.38"/>
<text text-anchor="start" x="857.67" y="-37.08" font-family="arial" font-size="14.00">2</text>
</g>
<!-- WAIR3 -->
<g id="node7" class="node">
<title>WAIR3</title>
<polygon fill="#ffffff" stroke="black" points="1451.5,-215.25 1143.5,-215.25 1143.5,-77 1451.5,-77 1451.5,-215.25"/>
<polygon fill="none" stroke="black" points="1143.5,-191.5 1143.5,-215.25 1451.5,-215.25 1451.5,-191.5 1143.5,-191.5"/>
<text text-anchor="start" x="1276.12" y="-197.95" font-family="arial" font-size="14.00">WAIR3</text>
<polygon fill="none" stroke="black" points="1143.5,-167.75 1143.5,-191.5 1451.5,-191.5 1451.5,-167.75 1143.5,-167.75"/>
<text text-anchor="start" x="1290.38" y="-174.2" font-family="arial" font-size="14.00">1x</text>
<text text-anchor="start" x="1190.62" y="-152.45" font-family="arial" font-size="14.00"> </text>
<text text-anchor="start" x="1145.25" y="-133.45" font-family="arial" font-size="14.00">Power12V:1:V+</text>
<text text-anchor="start" x="1243.25" y="-133.45" font-family="arial" font-size="14.00"> &#160;&#160;&#160;&#160;1:RD &#160;&#160;&#160;</text>
<text text-anchor="start" x="1311.5" y="-133.45" font-family="arial" font-size="14.00">Aviation&#45;Plug&#45;M&#45;6:6:L6</text>
<polygon fill="#000000" stroke="none" points="1143.5,-127.75 1143.5,-129.75 1451.5,-129.75 1451.5,-127.75 1143.5,-127.75"/>
<polygon fill="#ff0000" stroke="none" points="1143.5,-125.75 1143.5,-127.75 1451.5,-127.75 1451.5,-125.75 1143.5,-125.75"/>
<polygon fill="#ff0000" stroke="none" points="1143.5,-123.75 1143.5,-125.75 1451.5,-125.75 1451.5,-123.75 1143.5,-123.75"/>
<polygon fill="#ff0000" stroke="none" points="1143.5,-121.75 1143.5,-123.75 1451.5,-123.75 1451.5,-121.75 1143.5,-121.75"/>
<polygon fill="#000000" stroke="none" points="1143.5,-119.75 1143.5,-121.75 1451.5,-121.75 1451.5,-119.75 1143.5,-119.75"/>
<text text-anchor="start" x="1190.62" y="-104.45" font-family="arial" font-size="14.00"> </text>
<polygon fill="none" stroke="black" points="1143.5,-77 1143.5,-100.75 1451.5,-100.75 1451.5,-77 1143.5,-77"/>
<text text-anchor="start" x="1158.38" y="-83.45" font-family="arial" font-size="14.00">This Cable is from the cabinet to the AIR vents</text>
</g>
<!-- Power12V&#45;&#45;WAIR3 -->
<g id="edge17" class="edge">
<title>Power12V:e&#45;&#45;WAIR3:w</title>
<path fill="none" stroke="#000000" stroke-width="2" d="M876.12,-61.88C1001.51,-64.36 1025.52,-123.24 1143.5,-120.75"/>
<path fill="none" stroke="#ff0000" stroke-width="2" d="M876.12,-63.88C999.66,-65.12 1023.67,-123.99 1143.5,-122.75"/>
<path fill="none" stroke="#ff0000" stroke-width="2" d="M876.12,-65.88C997.81,-65.88 1021.82,-124.75 1143.5,-124.75"/>
<path fill="none" stroke="#ff0000" stroke-width="2" d="M876.12,-67.87C995.95,-66.63 1019.97,-125.51 1143.5,-126.75"/>
<path fill="none" stroke="#000000" stroke-width="2" d="M876.12,-69.87C994.1,-67.39 1018.12,-126.26 1143.5,-128.75"/>
</g>
<!-- AirValves -->
<g id="node4" class="node">
<title>AirValves</title>
<polygon fill="#ffffff" stroke="black" points="2657.25,-521.75 2411.25,-521.75 2411.25,-266.5 2657.25,-266.5 2657.25,-521.75"/>
<polygon fill="none" stroke="black" points="2411.25,-498 2411.25,-521.75 2657.25,-521.75 2657.25,-498 2411.25,-498"/>
<text text-anchor="start" x="2506.12" y="-504.45" font-family="arial" font-size="14.00">AirValves</text>
<polygon fill="none" stroke="black" points="2411.25,-474.25 2411.25,-498 2581.25,-498 2581.25,-474.25 2411.25,-474.25"/>
<text text-anchor="start" x="2415.25" y="-480.7" font-family="arial" font-size="14.00">pneumatisk 4 magnetventil</text>
<polygon fill="none" stroke="black" points="2581.25,-474.25 2581.25,-498 2619.25,-498 2619.25,-474.25 2581.25,-474.25"/>
<text text-anchor="start" x="2585.25" y="-480.7" font-family="arial" font-size="14.00">male</text>
<polygon fill="none" stroke="black" points="2619.25,-474.25 2619.25,-498 2657.25,-498 2657.25,-474.25 2619.25,-474.25"/>
<text text-anchor="start" x="2623.25" y="-480.7" font-family="arial" font-size="14.00">8&#45;pin</text>
<polygon fill="none" stroke="black" points="2411.25,-451.25 2411.25,-474.25 2525.75,-474.25 2525.75,-451.25 2411.25,-451.25"/>
<text text-anchor="start" x="2464.75" y="-456.95" font-family="arial" font-size="14.00">1</text>
<polygon fill="none" stroke="black" points="2525.75,-451.25 2525.75,-474.25 2657.25,-474.25 2657.25,-451.25 2525.75,-451.25"/>
<text text-anchor="start" x="2579.12" y="-456.95" font-family="arial" font-size="14.00">A1+</text>
<polygon fill="none" stroke="black" points="2411.25,-428.25 2411.25,-451.25 2525.75,-451.25 2525.75,-428.25 2411.25,-428.25"/>
<text text-anchor="start" x="2464.75" y="-433.95" font-family="arial" font-size="14.00">2</text>
<polygon fill="none" stroke="black" points="2525.75,-428.25 2525.75,-451.25 2657.25,-451.25 2657.25,-428.25 2525.75,-428.25"/>
<text text-anchor="start" x="2581" y="-433.95" font-family="arial" font-size="14.00">A1&#45;</text>
<polygon fill="none" stroke="black" points="2411.25,-405.25 2411.25,-428.25 2525.75,-428.25 2525.75,-405.25 2411.25,-405.25"/>
<text text-anchor="start" x="2464.75" y="-410.95" font-family="arial" font-size="14.00">3</text>
<polygon fill="none" stroke="black" points="2525.75,-405.25 2525.75,-428.25 2657.25,-428.25 2657.25,-405.25 2525.75,-405.25"/>
<text text-anchor="start" x="2579.12" y="-410.95" font-family="arial" font-size="14.00">A2+</text>
<polygon fill="none" stroke="black" points="2411.25,-382.25 2411.25,-405.25 2525.75,-405.25 2525.75,-382.25 2411.25,-382.25"/>
<text text-anchor="start" x="2464.75" y="-387.95" font-family="arial" font-size="14.00">4</text>
<polygon fill="none" stroke="black" points="2525.75,-382.25 2525.75,-405.25 2657.25,-405.25 2657.25,-382.25 2525.75,-382.25"/>
<text text-anchor="start" x="2581" y="-387.95" font-family="arial" font-size="14.00">A2&#45;</text>
<polygon fill="none" stroke="black" points="2411.25,-359.25 2411.25,-382.25 2525.75,-382.25 2525.75,-359.25 2411.25,-359.25"/>
<text text-anchor="start" x="2464.75" y="-364.95" font-family="arial" font-size="14.00">5</text>
<polygon fill="none" stroke="black" points="2525.75,-359.25 2525.75,-382.25 2657.25,-382.25 2657.25,-359.25 2525.75,-359.25"/>
<text text-anchor="start" x="2579.12" y="-364.95" font-family="arial" font-size="14.00">A3+</text>
<polygon fill="none" stroke="black" points="2411.25,-336.25 2411.25,-359.25 2525.75,-359.25 2525.75,-336.25 2411.25,-336.25"/>
<text text-anchor="start" x="2464.75" y="-341.95" font-family="arial" font-size="14.00">6</text>
<polygon fill="none" stroke="black" points="2525.75,-336.25 2525.75,-359.25 2657.25,-359.25 2657.25,-336.25 2525.75,-336.25"/>
<text text-anchor="start" x="2581" y="-341.95" font-family="arial" font-size="14.00">A3&#45;</text>
<polygon fill="none" stroke="black" points="2411.25,-313.25 2411.25,-336.25 2525.75,-336.25 2525.75,-313.25 2411.25,-313.25"/>
<text text-anchor="start" x="2464.75" y="-318.95" font-family="arial" font-size="14.00">7</text>
<polygon fill="none" stroke="black" points="2525.75,-313.25 2525.75,-336.25 2657.25,-336.25 2657.25,-313.25 2525.75,-313.25"/>
<text text-anchor="start" x="2579.12" y="-318.95" font-family="arial" font-size="14.00">A4+</text>
<polygon fill="none" stroke="black" points="2411.25,-290.25 2411.25,-313.25 2525.75,-313.25 2525.75,-290.25 2411.25,-290.25"/>
<text text-anchor="start" x="2464.75" y="-295.95" font-family="arial" font-size="14.00">8</text>
<polygon fill="none" stroke="black" points="2525.75,-290.25 2525.75,-313.25 2657.25,-313.25 2657.25,-290.25 2525.75,-290.25"/>
<text text-anchor="start" x="2581" y="-295.95" font-family="arial" font-size="14.00">A4&#45;</text>
<polygon fill="none" stroke="black" points="2411.25,-266.5 2411.25,-290.25 2657.25,-290.25 2657.25,-266.5 2411.25,-266.5"/>
<text text-anchor="start" x="2453.25" y="-272.95" font-family="arial" font-size="14.00">pneumatisk 4 magnetventil</text>
</g>
<!-- CAT6&#45;1&#45;&#45;Aviation&#45;Plug&#45;M&#45;6 -->
<g id="edge2" class="edge">
<title>CAT6&#45;1:e&#45;&#45;Aviation&#45;Plug&#45;M&#45;6:w</title>
<path fill="none" stroke="#000000" stroke-width="2" d="M999.5,-435.25C1201.08,-435.3 1252.04,-443.57 1451.13,-425.14 1513,-420.62 1527.59,-403.18 1595.5,-401.75"/>
<path fill="none" stroke="#ffffff" stroke-width="2" d="M999.5,-437.25C1200.76,-437.28 1251.72,-445.54 1451.32,-427.13 1514.53,-421.91 1529.13,-404.47 1595.5,-403.75"/>
<path fill="none" stroke="#ff8000" stroke-width="2" d="M999.5,-439.25C1200.44,-439.25 1251.4,-447.52 1451.5,-429.12 1516.07,-423.19 1530.66,-405.75 1595.5,-405.75"/>
<path fill="none" stroke="#ffffff" stroke-width="2" d="M999.5,-441.25C1200.12,-441.22 1251.08,-449.49 1451.68,-431.12 1517.6,-424.47 1532.2,-407.03 1595.5,-407.75"/>
<path fill="none" stroke="#000000" stroke-width="2" d="M999.5,-443.25C1199.8,-443.2 1250.76,-451.47 1451.87,-433.11 1519.13,-425.76 1533.73,-408.32 1595.5,-409.75"/>
</g>
<!-- CAT6&#45;1&#45;&#45;Aviation&#45;Plug&#45;M&#45;6 -->
<g id="edge4" class="edge">
<title>CAT6&#45;1:e&#45;&#45;Aviation&#45;Plug&#45;M&#45;6:w</title>
<path fill="none" stroke="#000000" stroke-width="2" d="M999.5,-406.25C1263.13,-406.56 1328.78,-379.06 1595.5,-378.75"/>
<path fill="none" stroke="#ff8000" stroke-width="2" d="M999.5,-408.25C1263.9,-408.41 1329.56,-380.91 1595.5,-380.75"/>
<path fill="none" stroke="#ff8000" stroke-width="2" d="M999.5,-410.25C1264.67,-410.25 1330.33,-382.75 1595.5,-382.75"/>
<path fill="none" stroke="#ff8000" stroke-width="2" d="M999.5,-412.25C1265.44,-412.09 1331.1,-384.59 1595.5,-384.75"/>
<path fill="none" stroke="#000000" stroke-width="2" d="M999.5,-414.25C1266.22,-413.94 1331.87,-386.44 1595.5,-386.75"/>
</g>
<!-- CAT6&#45;1&#45;&#45;Aviation&#45;Plug&#45;M&#45;6 -->
<g id="edge6" class="edge">
<title>CAT6&#45;1:e&#45;&#45;Aviation&#45;Plug&#45;M&#45;6:w</title>
<path fill="none" stroke="#000000" stroke-width="2" d="M999.5,-377.25C1263.32,-377.45 1329.2,-355.95 1595.5,-355.75"/>
<path fill="none" stroke="#ffffff" stroke-width="2" d="M999.5,-379.25C1263.94,-379.35 1329.82,-357.85 1595.5,-357.75"/>
<path fill="none" stroke="#00ff00" stroke-width="2" d="M999.5,-381.25C1264.56,-381.25 1330.44,-359.75 1595.5,-359.75"/>
<path fill="none" stroke="#ffffff" stroke-width="2" d="M999.5,-383.25C1265.18,-383.15 1331.06,-361.65 1595.5,-361.75"/>
<path fill="none" stroke="#000000" stroke-width="2" d="M999.5,-385.25C1265.8,-385.05 1331.68,-363.55 1595.5,-363.75"/>
</g>
<!-- CAT6&#45;1&#45;&#45;Aviation&#45;Plug&#45;M&#45;6 -->
<g id="edge8" class="edge">
<title>CAT6&#45;1:e&#45;&#45;Aviation&#45;Plug&#45;M&#45;6:w</title>
<path fill="none" stroke="#000000" stroke-width="2" d="M999.5,-348.25C1263.56,-348.36 1329.61,-332.86 1595.5,-332.75"/>
<path fill="none" stroke="#0066ff" stroke-width="2" d="M999.5,-350.25C1264.02,-350.3 1330.06,-334.8 1595.5,-334.75"/>
<path fill="none" stroke="#0066ff" stroke-width="2" d="M999.5,-352.25C1264.48,-352.25 1330.52,-336.75 1595.5,-336.75"/>
<path fill="none" stroke="#0066ff" stroke-width="2" d="M999.5,-354.25C1264.94,-354.2 1330.98,-338.7 1595.5,-338.75"/>
<path fill="none" stroke="#000000" stroke-width="2" d="M999.5,-356.25C1265.39,-356.14 1331.44,-340.64 1595.5,-340.75"/>
</g>
<!-- WAIR2&#45;&#45;Power12V -->
<g id="edge10" class="edge">
<title>WAIR2:e&#45;&#45;Power12V:w</title>
<path fill="none" stroke="#000000" stroke-width="2" d="M500.34,-43.92C619.7,-7.8 649.37,-2.93 770.03,-39.05"/>
<path fill="none" stroke="#000000" stroke-width="2" d="M500.92,-45.84C620.03,-9.78 649.7,-4.9 769.45,-40.96"/>
<path fill="none" stroke="#000000" stroke-width="2" d="M501.5,-47.75C620.35,-11.75 650.02,-6.88 768.87,-42.87"/>
<path fill="none" stroke="#000000" stroke-width="2" d="M502.08,-49.66C620.68,-13.72 650.35,-8.85 768.3,-44.79"/>
<path fill="none" stroke="#000000" stroke-width="2" d="M502.66,-51.58C621,-15.7 650.67,-10.82 767.72,-46.7"/>
</g>
<!-- WAIR2&#45;&#45;Power12V -->
<g id="edge12" class="edge">
<title>WAIR2:e&#45;&#45;Power12V:w</title>
<path fill="none" stroke="#000000" stroke-width="2" d="M501.1,-43.77C619.7,-31.8 649.37,-26.93 769.28,-38.9"/>
<path fill="none" stroke="#000000" stroke-width="2" d="M501.3,-45.76C620.03,-33.78 649.7,-28.9 769.08,-40.89"/>
<path fill="none" stroke="#000000" stroke-width="2" d="M501.5,-47.75C620.35,-35.75 650.02,-30.88 768.87,-42.88"/>
<path fill="none" stroke="#000000" stroke-width="2" d="M501.7,-49.74C620.68,-37.72 650.35,-32.85 768.67,-44.86"/>
<path fill="none" stroke="#000000" stroke-width="2" d="M501.9,-51.73C621,-39.7 650.67,-34.82 768.47,-46.85"/>
</g>
<!-- WAIR2&#45;&#45;Power12V -->
<g id="edge14" class="edge">
<title>WAIR2:e&#45;&#45;Power12V:w</title>
<path fill="none" stroke="#000000" stroke-width="2" d="M501.9,-43.77C619.7,-55.8 649.37,-50.93 768.47,-38.9"/>
<path fill="none" stroke="#000000" stroke-width="2" d="M501.7,-45.76C620.03,-57.78 649.7,-52.9 768.67,-40.89"/>
<path fill="none" stroke="#000000" stroke-width="2" d="M501.5,-47.75C620.35,-59.75 650.02,-54.88 768.88,-42.88"/>
<path fill="none" stroke="#000000" stroke-width="2" d="M501.3,-49.74C620.68,-61.72 650.35,-56.85 769.08,-44.86"/>
<path fill="none" stroke="#000000" stroke-width="2" d="M501.1,-51.73C621,-63.7 650.67,-58.82 769.28,-46.85"/>
</g>
<!-- WAIR2&#45;&#45;Power12V -->
<g id="edge16" class="edge">
<title>WAIR2:e&#45;&#45;Power12V:w</title>
<path fill="none" stroke="#000000" stroke-width="2" d="M502.66,-43.92C619.7,-79.8 649.37,-74.93 767.72,-39.05"/>
<path fill="none" stroke="#000000" stroke-width="2" d="M502.08,-45.84C620.03,-81.78 649.7,-76.9 768.3,-40.96"/>
<path fill="none" stroke="#000000" stroke-width="2" d="M501.5,-47.75C620.35,-83.75 650.02,-78.88 768.88,-42.87"/>
<path fill="none" stroke="#000000" stroke-width="2" d="M500.92,-49.66C620.68,-85.72 650.35,-80.85 769.45,-44.79"/>
<path fill="none" stroke="#000000" stroke-width="2" d="M500.34,-51.58C621,-87.7 650.67,-82.82 770.03,-46.7"/>
</g>
<!-- WAIR3&#45;&#45;Aviation&#45;Plug&#45;M&#45;6 -->
<g id="edge18" class="edge">
<title>WAIR3:e&#45;&#45;Aviation&#45;Plug&#45;M&#45;6:w</title>
<path fill="none" stroke="#000000" stroke-width="2" d="M1451.5,-120.75C1552.99,-125.93 1501.65,-291.93 1595.5,-286.75"/>
<path fill="none" stroke="#ff0000" stroke-width="2" d="M1451.5,-122.75C1551.08,-125.34 1499.74,-291.34 1595.5,-288.75"/>
<path fill="none" stroke="#ff0000" stroke-width="2" d="M1451.5,-124.75C1549.17,-124.75 1497.83,-290.75 1595.5,-290.75"/>
<path fill="none" stroke="#ff0000" stroke-width="2" d="M1451.5,-126.75C1547.26,-124.16 1495.92,-290.16 1595.5,-292.75"/>
<path fill="none" stroke="#000000" stroke-width="2" d="M1451.5,-128.75C1545.35,-123.57 1494.01,-289.57 1595.5,-294.75"/>
</g>
<!-- CAT6&#45;4&#45;&#45;AirValves -->
<g id="edge20" class="edge">
<title>CAT6&#45;4:e&#45;&#45;AirValves:w</title>
<path fill="none" stroke="#000000" stroke-width="2" d="M2267.25,-411.25C2335.63,-413.25 2349.79,-437.75 2411.25,-435.75"/>
<path fill="none" stroke="#ffffff" stroke-width="2" d="M2267.25,-413.25C2333.9,-414.25 2348.06,-438.75 2411.25,-437.75"/>
<path fill="none" stroke="#ff8000" stroke-width="2" d="M2267.25,-415.25C2332.17,-415.25 2346.33,-439.75 2411.25,-439.75"/>
<path fill="none" stroke="#ffffff" stroke-width="2" d="M2267.25,-417.25C2330.44,-416.25 2344.6,-440.75 2411.25,-441.75"/>
<path fill="none" stroke="#000000" stroke-width="2" d="M2267.25,-419.25C2328.71,-417.25 2342.87,-441.75 2411.25,-443.75"/>
</g>
<!-- CAT6&#45;4&#45;&#45;AirValves -->
<g id="edge22" class="edge">
<title>CAT6&#45;4:e&#45;&#45;AirValves:w</title>
<path fill="none" stroke="#000000" stroke-width="2" d="M2267.25,-382.25C2333.05,-382.64 2348.88,-390.14 2411.25,-389.75"/>
<path fill="none" stroke="#ff8000" stroke-width="2" d="M2267.25,-384.25C2332.19,-384.44 2348.02,-391.94 2411.25,-391.75"/>
<path fill="none" stroke="#ff8000" stroke-width="2" d="M2267.25,-386.25C2331.34,-386.25 2347.16,-393.75 2411.25,-393.75"/>
<path fill="none" stroke="#ff8000" stroke-width="2" d="M2267.25,-388.25C2330.48,-388.06 2346.31,-395.56 2411.25,-395.75"/>
<path fill="none" stroke="#000000" stroke-width="2" d="M2267.25,-390.25C2329.62,-389.86 2345.45,-397.36 2411.25,-397.75"/>
</g>
<!-- CAT6&#45;4&#45;&#45;AirValves -->
<g id="edge24" class="edge">
<title>CAT6&#45;4:e&#45;&#45;AirValves:w</title>
<path fill="none" stroke="#000000" stroke-width="2" d="M2267.25,-353.25C2329.32,-353.83 2345.04,-344.33 2411.25,-343.75"/>
<path fill="none" stroke="#ffffff" stroke-width="2" d="M2267.25,-355.25C2330.35,-355.54 2346.08,-346.04 2411.25,-345.75"/>
<path fill="none" stroke="#00ff00" stroke-width="2" d="M2267.25,-357.25C2331.39,-357.25 2347.11,-347.75 2411.25,-347.75"/>
<path fill="none" stroke="#ffffff" stroke-width="2" d="M2267.25,-359.25C2332.42,-358.96 2348.15,-349.46 2411.25,-349.75"/>
<path fill="none" stroke="#000000" stroke-width="2" d="M2267.25,-361.25C2333.46,-360.67 2349.18,-351.17 2411.25,-351.75"/>
</g>
<!-- CAT6&#45;4&#45;&#45;AirValves -->
<g id="edge26" class="edge">
<title>CAT6&#45;4:e&#45;&#45;AirValves:w</title>
<path fill="none" stroke="#000000" stroke-width="2" d="M2267.25,-324.25C2328.78,-326.4 2342.63,-299.9 2411.25,-297.75"/>
<path fill="none" stroke="#0066ff" stroke-width="2" d="M2267.25,-326.25C2330.55,-327.32 2344.4,-300.82 2411.25,-299.75"/>
<path fill="none" stroke="#0066ff" stroke-width="2" d="M2267.25,-328.25C2332.32,-328.25 2346.18,-301.75 2411.25,-301.75"/>
<path fill="none" stroke="#0066ff" stroke-width="2" d="M2267.25,-330.25C2334.1,-329.18 2347.95,-302.68 2411.25,-303.75"/>
<path fill="none" stroke="#000000" stroke-width="2" d="M2267.25,-332.25C2335.87,-330.1 2349.72,-303.6 2411.25,-305.75"/>
</g>
</g>
</svg>
