<?xml version="1.0" encoding="UTF-8" standalone="no"?>
<!DOCTYPE svg PUBLIC "-//W3C//DTD SVG 1.1//EN"
 "http://www.w3.org/Graphics/SVG/1.1/DTD/svg11.dtd">
<!-- Generated by graphviz version 12.1.1 (20240910.0053)
 -->
<!-- Pages: 1 -->
<svg width="480pt" height="366pt"
 viewBox="0.00 0.00 479.50 365.50" xmlns="http://www.w3.org/2000/svg" xmlns:xlink="http://www.w3.org/1999/xlink">
<g id="graph0" class="graph" transform="scale(1 1) rotate(0) translate(4 361.5)">
<polygon fill="#ffffff" stroke="none" points="-4,4 -4,-361.5 475.5,-361.5 475.5,4 -4,4"/>
<!-- B1&#45;1 -->
<g id="node1" class="node">
<title>B1&#45;1</title>
<polygon fill="#ffffff" stroke="black" points="178.5,-350.12 0,-350.12 0,-231.38 178.5,-231.38 178.5,-350.12"/>
<polygon fill="none" stroke="black" points="0,-326.38 0,-350.12 178.5,-350.12 178.5,-326.38 0,-326.38"/>
<text text-anchor="start" x="75" y="-332.82" font-family="arial" font-size="14.00">B1&#45;1</text>
<polygon fill="none" stroke="black" points="0,-302.62 0,-326.38 178.5,-326.38 178.5,-302.62 0,-302.62"/>
<text text-anchor="start" x="64.88" y="-309.07" font-family="arial" font-size="14.00">Phoenix</text>
<polygon fill="none" stroke="black" points="0,-278.88 0,-302.62 112.25,-302.62 112.25,-278.88 0,-278.88"/>
<text text-anchor="start" x="4" y="-285.32" font-family="arial" font-size="14.00">Distribution Block</text>
<polygon fill="none" stroke="black" points="112.25,-278.88 112.25,-302.62 140.5,-302.62 140.5,-278.88 112.25,-278.88"/>
<text text-anchor="start" x="116.25" y="-285.32" font-family="arial" font-size="14.00">Din</text>
<polygon fill="none" stroke="black" points="140.5,-278.88 140.5,-302.62 178.5,-302.62 178.5,-278.88 140.5,-278.88"/>
<text text-anchor="start" x="144.5" y="-285.32" font-family="arial" font-size="14.00">6&#45;pin</text>
<polygon fill="none" stroke="black" points="0,-255.12 0,-278.88 178.5,-278.88 178.5,-255.12 0,-255.12"/>
<text text-anchor="start" x="81.75" y="-261.57" font-family="arial" font-size="14.00">L1</text>
<polygon fill="none" stroke="black" points="0,-231.38 0,-255.12 178.5,-255.12 178.5,-231.38 0,-231.38"/>
<text text-anchor="start" x="29.25" y="-237.82" font-family="arial" font-size="14.00">110V Line dist block</text>
</g>
<!-- WAIR1 -->
<g id="node2" class="node">
<title>WAIR1</title>
<polygon fill="#ffffff" stroke="black" points="471.5,-357.5 322.5,-357.5 322.5,0 471.5,0 471.5,-357.5"/>
<polygon fill="none" stroke="black" points="322.5,-333.75 322.5,-357.5 471.5,-357.5 471.5,-333.75 322.5,-333.75"/>
<text text-anchor="start" x="375.62" y="-340.2" font-family="arial" font-size="14.00">WAIR1</text>
<polygon fill="none" stroke="black" points="322.5,-310 322.5,-333.75 363.17,-333.75 363.17,-310 322.5,-310"/>
<text text-anchor="start" x="335.71" y="-316.45" font-family="arial" font-size="14.00">8x</text>
<polygon fill="none" stroke="black" points="363.17,-310 363.17,-333.75 410.58,-333.75 410.58,-310 363.17,-310"/>
<text text-anchor="start" x="376.38" y="-316.45" font-family="arial" font-size="14.00">+ S</text>
<polygon fill="none" stroke="black" points="410.58,-310 410.58,-333.75 471.5,-333.75 471.5,-310 410.58,-310"/>
<text text-anchor="start" x="423.79" y="-316.45" font-family="arial" font-size="14.00">2.1 m</text>
<text text-anchor="start" x="346.12" y="-294.7" font-family="arial" font-size="14.00"> </text>
<text text-anchor="start" x="324.38" y="-275.7" font-family="arial" font-size="14.00">B1&#45;1:L1</text>
<text text-anchor="start" x="375.12" y="-275.7" font-family="arial" font-size="14.00"> &#160;&#160;&#160;&#160;1:WHOG &#160;&#160;&#160;</text>
<polygon fill="#000000" stroke="none" points="322.5,-270 322.5,-272 471.5,-272 471.5,-270 322.5,-270"/>
<polygon fill="#ffffff" stroke="none" points="322.5,-268 322.5,-270 471.5,-270 471.5,-268 322.5,-268"/>
<polygon fill="#ff8000" stroke="none" points="322.5,-266 322.5,-268 471.5,-268 471.5,-266 322.5,-266"/>
<polygon fill="#ffffff" stroke="none" points="322.5,-264 322.5,-266 471.5,-266 471.5,-264 322.5,-264"/>
<polygon fill="#000000" stroke="none" points="322.5,-262 322.5,-264 471.5,-264 471.5,-262 322.5,-262"/>
<text text-anchor="start" x="386.75" y="-246.7" font-family="arial" font-size="14.00"> &#160;&#160;&#160;&#160;2:OG &#160;&#160;&#160;</text>
<polygon fill="#000000" stroke="none" points="322.5,-241 322.5,-243 471.5,-243 471.5,-241 322.5,-241"/>
<polygon fill="#ff8000" stroke="none" points="322.5,-239 322.5,-241 471.5,-241 471.5,-239 322.5,-239"/>
<polygon fill="#ff8000" stroke="none" points="322.5,-237 322.5,-239 471.5,-239 471.5,-237 322.5,-237"/>
<polygon fill="#ff8000" stroke="none" points="322.5,-235 322.5,-237 471.5,-237 471.5,-235 322.5,-235"/>
<polygon fill="#000000" stroke="none" points="322.5,-233 322.5,-235 471.5,-235 471.5,-233 322.5,-233"/>
<text text-anchor="start" x="375.88" y="-217.7" font-family="arial" font-size="14.00"> &#160;&#160;&#160;&#160;3:WHGN &#160;&#160;&#160;</text>
<polygon fill="#000000" stroke="none" points="322.5,-212 322.5,-214 471.5,-214 471.5,-212 322.5,-212"/>
<polygon fill="#ffffff" stroke="none" points="322.5,-210 322.5,-212 471.5,-212 471.5,-210 322.5,-210"/>
<polygon fill="#00ff00" stroke="none" points="322.5,-208 322.5,-210 471.5,-210 471.5,-208 322.5,-208"/>
<polygon fill="#ffffff" stroke="none" points="322.5,-206 322.5,-208 471.5,-208 471.5,-206 322.5,-206"/>
<polygon fill="#000000" stroke="none" points="322.5,-204 322.5,-206 471.5,-206 471.5,-204 322.5,-204"/>
<text text-anchor="start" x="388.62" y="-188.7" font-family="arial" font-size="14.00"> &#160;&#160;&#160;&#160;4:BU &#160;&#160;&#160;</text>
<polygon fill="#000000" stroke="none" points="322.5,-183 322.5,-185 471.5,-185 471.5,-183 322.5,-183"/>
<polygon fill="#0066ff" stroke="none" points="322.5,-181 322.5,-183 471.5,-183 471.5,-181 322.5,-181"/>
<polygon fill="#0066ff" stroke="none" points="322.5,-179 322.5,-181 471.5,-181 471.5,-179 322.5,-179"/>
<polygon fill="#0066ff" stroke="none" points="322.5,-177 322.5,-179 471.5,-179 471.5,-177 322.5,-177"/>
<polygon fill="#000000" stroke="none" points="322.5,-175 322.5,-177 471.5,-177 471.5,-175 322.5,-175"/>
<text text-anchor="start" x="377" y="-159.7" font-family="arial" font-size="14.00"> &#160;&#160;&#160;&#160;5:WHBU &#160;&#160;&#160;</text>
<polygon fill="#000000" stroke="none" points="322.5,-154 322.5,-156 471.5,-156 471.5,-154 322.5,-154"/>
<polygon fill="#ffffff" stroke="none" points="322.5,-152 322.5,-154 471.5,-154 471.5,-152 322.5,-152"/>
<polygon fill="#0066ff" stroke="none" points="322.5,-150 322.5,-152 471.5,-152 471.5,-150 322.5,-150"/>
<polygon fill="#ffffff" stroke="none" points="322.5,-148 322.5,-150 471.5,-150 471.5,-148 322.5,-148"/>
<polygon fill="#000000" stroke="none" points="322.5,-146 322.5,-148 471.5,-148 471.5,-146 322.5,-146"/>
<text text-anchor="start" x="387.5" y="-130.7" font-family="arial" font-size="14.00"> &#160;&#160;&#160;&#160;6:GN &#160;&#160;&#160;</text>
<polygon fill="#000000" stroke="none" points="322.5,-125 322.5,-127 471.5,-127 471.5,-125 322.5,-125"/>
<polygon fill="#00ff00" stroke="none" points="322.5,-123 322.5,-125 471.5,-125 471.5,-123 322.5,-123"/>
<polygon fill="#00ff00" stroke="none" points="322.5,-121 322.5,-123 471.5,-123 471.5,-121 322.5,-121"/>
<polygon fill="#00ff00" stroke="none" points="322.5,-119 322.5,-121 471.5,-121 471.5,-119 322.5,-119"/>
<polygon fill="#000000" stroke="none" points="322.5,-117 322.5,-119 471.5,-119 471.5,-117 322.5,-117"/>
<text text-anchor="start" x="377" y="-101.7" font-family="arial" font-size="14.00"> &#160;&#160;&#160;&#160;7:WHBN &#160;&#160;&#160;</text>
<polygon fill="#000000" stroke="none" points="322.5,-96 322.5,-98 471.5,-98 471.5,-96 322.5,-96"/>
<polygon fill="#ffffff" stroke="none" points="322.5,-94 322.5,-96 471.5,-96 471.5,-94 322.5,-94"/>
<polygon fill="#895956" stroke="none" points="322.5,-92 322.5,-94 471.5,-94 471.5,-92 322.5,-92"/>
<polygon fill="#ffffff" stroke="none" points="322.5,-90 322.5,-92 471.5,-92 471.5,-90 322.5,-90"/>
<polygon fill="#000000" stroke="none" points="322.5,-88 322.5,-90 471.5,-90 471.5,-88 322.5,-88"/>
<text text-anchor="start" x="388.62" y="-72.7" font-family="arial" font-size="14.00"> &#160;&#160;&#160;&#160;8:BN &#160;&#160;&#160;</text>
<polygon fill="#000000" stroke="none" points="322.5,-67 322.5,-69 471.5,-69 471.5,-67 322.5,-67"/>
<polygon fill="#895956" stroke="none" points="322.5,-65 322.5,-67 471.5,-67 471.5,-65 322.5,-65"/>
<polygon fill="#895956" stroke="none" points="322.5,-63 322.5,-65 471.5,-65 471.5,-63 322.5,-63"/>
<polygon fill="#895956" stroke="none" points="322.5,-61 322.5,-63 471.5,-63 471.5,-61 322.5,-61"/>
<polygon fill="#000000" stroke="none" points="322.5,-59 322.5,-61 471.5,-61 471.5,-59 322.5,-59"/>
<text text-anchor="start" x="346.12" y="-43.7" font-family="arial" font-size="14.00"> </text>
<text text-anchor="start" x="401.75" y="-24.7" font-family="arial" font-size="14.00">Shield</text>
<polygon fill="#000000" stroke="none" points="322.5,-19 322.5,-21 471.5,-21 471.5,-19 322.5,-19"/>
<text text-anchor="start" x="346.12" y="-3.7" font-family="arial" font-size="14.00"> </text>
</g>
<!-- B1&#45;1&#45;&#45;WAIR1 -->
<g id="edge1" class="edge">
<title>B1&#45;1:e&#45;&#45;WAIR1:w</title>
<path fill="none" stroke="#000000" stroke-width="2" d="M178.5,-263C242.5,-263 258.5,-263 322.5,-263"/>
<path fill="none" stroke="#ffffff" stroke-width="2" d="M178.5,-265C242.5,-265 258.5,-265 322.5,-265"/>
<path fill="none" stroke="#ff8000" stroke-width="2" d="M178.5,-267C242.5,-267 258.5,-267 322.5,-267"/>
<path fill="none" stroke="#ffffff" stroke-width="2" d="M178.5,-269C242.5,-269 258.5,-269 322.5,-269"/>
<path fill="none" stroke="#000000" stroke-width="2" d="M178.5,-271C242.5,-271 258.5,-271 322.5,-271"/>
</g>
</g>
</svg>
